<svg width="192" height="55" viewBox="0 0 192 55" fill="none" xmlns="http://www.w3.org/2000/svg">
<path d="M36.7717 28.875C36.7717 28.6676 36.7272 28.4878 36.6384 28.3354C36.5495 28.1831 36.3781 28.0392 36.1242 27.9038C35.8745 27.7642 35.5043 27.616 35.0134 27.4595C34.5987 27.3241 34.203 27.1717 33.8264 27.0024C33.454 26.8289 33.1239 26.6279 32.8361 26.3994C32.5484 26.1709 32.322 25.9043 32.1569 25.5996C31.9919 25.2949 31.9094 24.9395 31.9094 24.5332C31.9094 24.0127 32.0575 23.5599 32.3537 23.1748C32.6499 22.7855 33.0562 22.4829 33.5725 22.2671C34.093 22.0513 34.6875 21.9434 35.3562 21.9434C36.0417 21.9434 36.6405 22.064 37.1525 22.3052C37.6646 22.5464 38.0603 22.8828 38.3396 23.3145C38.6231 23.7419 38.7648 24.237 38.7648 24.7998H36.778C36.778 24.5501 36.7251 24.3301 36.6193 24.1396C36.5135 23.945 36.3527 23.7948 36.1369 23.689C35.9253 23.5789 35.6545 23.5239 35.3244 23.5239C35.007 23.5239 34.7425 23.5705 34.531 23.6636C34.3194 23.7567 34.1607 23.8794 34.0549 24.0317C33.9533 24.1841 33.9025 24.3555 33.9025 24.5459C33.9025 24.7448 33.9724 24.9183 34.112 25.0664C34.2517 25.2145 34.4548 25.3521 34.7214 25.479C34.988 25.6017 35.3117 25.7223 35.6926 25.8408C36.3654 26.0439 36.9304 26.283 37.3874 26.5581C37.8444 26.8332 38.1872 27.159 38.4157 27.5356C38.6485 27.908 38.7648 28.3503 38.7648 28.8623C38.7648 29.404 38.6252 29.8674 38.3459 30.2524C38.0708 30.6375 37.6815 30.9316 37.1779 31.1348C36.6743 31.3379 36.0819 31.4395 35.4006 31.4395C34.9351 31.4395 34.4781 31.3802 34.0295 31.2617C33.5852 31.139 33.181 30.9528 32.8171 30.7031C32.4574 30.4492 32.1696 30.1297 31.9538 29.7446C31.738 29.3595 31.6301 28.9025 31.6301 28.3735H33.6296C33.6296 28.6486 33.6698 28.8813 33.7502 29.0718C33.8348 29.258 33.9533 29.4103 34.1057 29.5288C34.2622 29.6473 34.4484 29.734 34.6643 29.7891C34.8843 29.8398 35.1298 29.8652 35.4006 29.8652C35.718 29.8652 35.9761 29.8229 36.175 29.7383C36.3781 29.6494 36.5284 29.5309 36.6257 29.3828C36.723 29.2305 36.7717 29.0612 36.7717 28.875ZM48.3739 22.0703V28.145C48.3739 28.8602 48.2216 29.4632 47.9169 29.9541C47.6122 30.445 47.1911 30.8153 46.6537 31.0649C46.1205 31.3146 45.5069 31.4395 44.8129 31.4395C44.1146 31.4395 43.4947 31.3146 42.953 31.0649C42.4156 30.8153 41.9945 30.445 41.6898 29.9541C41.3894 29.4632 41.2392 28.8602 41.2392 28.145V22.0703H43.2387V28.145C43.2387 28.5428 43.3 28.8665 43.4228 29.1162C43.5455 29.3617 43.7253 29.5436 43.9623 29.6621C44.1993 29.7764 44.4828 29.8335 44.8129 29.8335C45.1472 29.8335 45.4307 29.7764 45.6635 29.6621C45.8962 29.5436 46.0718 29.3617 46.1903 29.1162C46.3131 28.8665 46.3744 28.5428 46.3744 28.145V22.0703H48.3739ZM52.4923 27.3135L52.4796 25.9233H54.4537C54.9573 25.9233 55.3297 25.8302 55.5709 25.644C55.8121 25.4536 55.9327 25.1807 55.9327 24.8252C55.9327 24.4189 55.8142 24.127 55.5772 23.9492C55.3403 23.7715 54.9658 23.6826 54.4537 23.6826H53.1842V31.3125H51.1847V22.0703H54.4537C55.5413 22.0703 56.3919 22.2777 57.0055 22.6924C57.6191 23.1071 57.9259 23.7461 57.9259 24.6094C57.9259 24.986 57.8391 25.3394 57.6656 25.6694C57.4964 25.9953 57.2255 26.2598 56.8531 26.4629C56.4807 26.666 55.9962 26.7739 55.3995 26.7866L54.8409 27.3135H52.4923ZM51.9464 31.3125L52.7208 29.7065H54.7584C55.2366 29.7065 55.5857 29.5986 55.8058 29.3828C56.0258 29.1628 56.1358 28.8898 56.1358 28.564C56.1358 28.3058 56.0914 28.0837 56.0025 27.8975C55.9137 27.7113 55.774 27.5674 55.5836 27.4658C55.3974 27.3643 55.1498 27.3135 54.8409 27.3135H52.9874L53.0001 25.9233H55.2916L55.755 26.4756C56.3263 26.4629 56.7854 26.5581 57.1324 26.7612C57.4794 26.9601 57.7312 27.2225 57.8878 27.5483C58.0444 27.8742 58.1227 28.2191 58.1227 28.583C58.1227 29.4844 57.8328 30.1657 57.253 30.627C56.6733 31.084 55.8417 31.3125 54.7584 31.3125H51.9464ZM65.5926 28.875C65.5926 28.6676 65.5481 28.4878 65.4593 28.3354C65.3704 28.1831 65.199 28.0392 64.9451 27.9038C64.6954 27.7642 64.3252 27.616 63.8343 27.4595C63.4196 27.3241 63.0239 27.1717 62.6473 27.0024C62.2749 26.8289 61.9448 26.6279 61.657 26.3994C61.3693 26.1709 61.1429 25.9043 60.9778 25.5996C60.8128 25.2949 60.7303 24.9395 60.7303 24.5332C60.7303 24.0127 60.8784 23.5599 61.1746 23.1748C61.4708 22.7855 61.8771 22.4829 62.3934 22.2671C62.9139 22.0513 63.5084 21.9434 64.177 21.9434C64.8626 21.9434 65.4614 22.064 65.9734 22.3052C66.4855 22.5464 66.8812 22.8828 67.1604 23.3145C67.444 23.7419 67.5857 24.237 67.5857 24.7998H65.5989C65.5989 24.5501 65.546 24.3301 65.4402 24.1396C65.3344 23.945 65.1736 23.7948 64.9578 23.689C64.7462 23.5789 64.4754 23.5239 64.1453 23.5239C63.8279 23.5239 63.5634 23.5705 63.3519 23.6636C63.1403 23.7567 62.9816 23.8794 62.8758 24.0317C62.7742 24.1841 62.7234 24.3555 62.7234 24.5459C62.7234 24.7448 62.7933 24.9183 62.9329 25.0664C63.0726 25.2145 63.2757 25.3521 63.5423 25.479C63.8089 25.6017 64.1326 25.7223 64.5135 25.8408C65.1863 26.0439 65.7513 26.283 66.2083 26.5581C66.6653 26.8332 67.0081 27.159 67.2366 27.5356C67.4694 27.908 67.5857 28.3503 67.5857 28.8623C67.5857 29.404 67.4461 29.8674 67.1668 30.2524C66.8917 30.6375 66.5024 30.9316 65.9988 31.1348C65.4952 31.3379 64.9028 31.4395 64.2215 31.4395C63.756 31.4395 63.299 31.3802 62.8504 31.2617C62.4061 31.139 62.0019 30.9528 61.638 30.7031C61.2783 30.4492 60.9905 30.1297 60.7747 29.7446C60.5589 29.3595 60.451 28.9025 60.451 28.3735H62.4505C62.4505 28.6486 62.4907 28.8813 62.5711 29.0718C62.6557 29.258 62.7742 29.4103 62.9266 29.5288C63.0831 29.6473 63.2693 29.734 63.4852 29.7891C63.7052 29.8398 63.9506 29.8652 64.2215 29.8652C64.5389 29.8652 64.797 29.8229 64.9959 29.7383C65.199 29.6494 65.3493 29.5309 65.4466 29.3828C65.5439 29.2305 65.5926 29.0612 65.5926 28.875ZM77.4551 28.2148C77.417 28.8411 77.2456 29.3976 76.9409 29.8843C76.6362 30.3709 76.2109 30.7518 75.665 31.0269C75.1234 31.3019 74.4717 31.4395 73.71 31.4395C72.9144 31.4395 72.2288 31.2596 71.6533 30.8999C71.0778 30.536 70.6356 30.0197 70.3267 29.3511C70.0177 28.6825 69.8633 27.8911 69.8633 26.9771V26.4121C69.8633 25.4938 70.022 24.7004 70.3394 24.0317C70.661 23.3631 71.1095 22.8468 71.6851 22.4829C72.2606 22.119 72.9398 21.937 73.7227 21.937C74.5013 21.937 75.1572 22.0809 75.6904 22.3687C76.2279 22.6522 76.6426 23.0415 76.9346 23.5366C77.2308 24.0317 77.4085 24.5967 77.4678 25.2314H75.4746C75.4365 24.6898 75.2884 24.2793 75.0303 24C74.7764 23.7165 74.3405 23.5747 73.7227 23.5747C73.3122 23.5747 72.9715 23.6742 72.7007 23.873C72.4299 24.0719 72.2267 24.3809 72.0913 24.7998C71.9559 25.2145 71.8882 25.7477 71.8882 26.3994V26.9771C71.8882 27.616 71.9474 28.145 72.0659 28.564C72.1886 28.9829 72.3833 29.2961 72.6499 29.5034C72.9165 29.7065 73.2699 29.8081 73.71 29.8081C74.0951 29.8081 74.4124 29.751 74.6621 29.6367C74.9118 29.5182 75.1022 29.3405 75.2334 29.1035C75.3646 28.8665 75.4429 28.5703 75.4683 28.2148H77.4551ZM83.4396 22.0703C84.1548 22.0703 84.7684 22.1782 85.2805 22.394C85.7967 22.6056 86.1924 22.9188 86.4675 23.3335C86.7425 23.744 86.8801 24.2539 86.8801 24.8633C86.8801 25.3711 86.7954 25.8027 86.6262 26.1582C86.4611 26.5137 86.2284 26.8078 85.9279 27.0405C85.6275 27.2733 85.2741 27.4616 84.8679 27.6055L84.2331 27.9673H81.2687L81.2561 26.355H83.4333C83.7549 26.355 84.0236 26.3021 84.2395 26.1963C84.4553 26.0863 84.6161 25.9318 84.7219 25.7329C84.8277 25.534 84.8806 25.2992 84.8806 25.0283C84.8806 24.6136 84.7621 24.2856 84.5251 24.0444C84.2923 23.8032 83.9305 23.6826 83.4396 23.6826H81.9543V31.3125H79.9611V22.0703H83.4396ZM82.9953 27.2056L85.1027 27.1929L87.2165 31.2173V31.3125H85.0773L82.9953 27.2056ZM91.703 31.3125H89.7099V22.0703H91.703V31.3125ZM96.0245 27.3135L96.0118 25.9233H97.9859C98.4895 25.9233 98.8619 25.8302 99.1031 25.644C99.3443 25.4536 99.4649 25.1807 99.4649 24.8252C99.4649 24.4189 99.3464 24.127 99.1095 23.9492C98.8725 23.7715 98.498 23.6826 97.9859 23.6826H96.7164V31.3125H94.7169V22.0703H97.9859C99.0735 22.0703 99.9241 22.2777 100.538 22.6924C101.151 23.1071 101.458 23.7461 101.458 24.6094C101.458 24.986 101.371 25.3394 101.198 25.6694C101.029 25.9953 100.758 26.2598 100.385 26.4629C100.013 26.666 99.5284 26.7739 98.9317 26.7866L98.3731 27.3135H96.0245ZM95.4786 31.3125L96.253 29.7065H98.2906C98.7688 29.7065 99.1179 29.5986 99.338 29.3828C99.558 29.1628 99.6681 28.8898 99.6681 28.564C99.6681 28.3058 99.6236 28.0837 99.5348 27.8975C99.4459 27.7113 99.3062 27.5674 99.1158 27.4658C98.9296 27.3643 98.6821 27.3135 98.3731 27.3135H96.5196L96.5323 25.9233H98.8238L99.2872 26.4756C99.8585 26.4629 100.318 26.5581 100.665 26.7612C101.012 26.9601 101.263 27.2225 101.42 27.5483C101.577 27.8742 101.655 28.2191 101.655 28.583C101.655 29.4844 101.365 30.1657 100.785 30.627C100.205 31.084 99.374 31.3125 98.2906 31.3125H95.4786ZM110.585 31.3125H105.703V29.7065H110.585V31.3125ZM106.345 31.3125H104.345V22.0703H106.345V31.3125ZM109.95 27.3389H105.703V25.7837H109.95V27.3389ZM110.578 23.6826H105.703V22.0703H110.578V23.6826Z" fill="white"/>
<g clip-path="url(#clip0_5_159)">
<path d="M155.431 36.7007L173.991 18.1405" stroke="white" stroke-width="0.999746"/>
<path d="M160.801 18.3419L173.924 18.3404L173.922 31.4629" stroke="white" stroke-width="0.999746"/>
</g>
<rect x="138.469" y="0.8125" width="53" height="53" rx="26.5" stroke="white"/>
<rect x="0.53125" y="0.8125" width="190.938" height="53" rx="26.5" stroke="white"/>
<defs>
<clipPath id="clip0_5_159">
<rect width="19.2655" height="26.7657" fill="white" transform="translate(162.309 43.5791) rotate(-135)"/>
</clipPath>
</defs>
</svg>
