<svg width="201" height="279" viewBox="0 0 201 279" fill="none" xmlns="http://www.w3.org/2000/svg">
<path d="M19.9781 269.312H17.5172V257.938H19.9781V269.312ZM24.4391 264.711H19.3219V262.734H24.4391V264.711ZM24.9781 259.922H19.3219V257.938H24.9781V259.922ZM29.6922 269.312H27.2391V257.938H29.6922V269.312ZM37.7969 269.312H35.3438V257.938H37.7969V269.312ZM41.25 259.922H31.9375V257.938H41.25V259.922ZM51.725 261.82C52.0479 261.612 52.2589 261.414 52.3578 261.227C52.4568 261.034 52.5063 260.831 52.5063 260.617C52.5063 260.388 52.4203 260.174 52.2484 259.977C52.0818 259.773 51.8396 259.672 51.5219 259.672C51.1781 259.672 50.9203 259.779 50.7484 259.992C50.5766 260.206 50.4906 260.464 50.4906 260.766C50.4906 261.115 50.626 261.474 50.8969 261.844C51.1729 262.214 51.5089 262.633 51.9047 263.102L57.2563 269.312H54.5844L50.2406 264.312C49.6885 263.63 49.2406 263.021 48.8969 262.484C48.5583 261.943 48.3891 261.38 48.3891 260.797C48.3891 260.193 48.5193 259.667 48.7797 259.219C49.0401 258.766 49.4047 258.411 49.8734 258.156C50.3474 257.901 50.8995 257.773 51.5297 257.773C52.1234 257.773 52.6391 257.898 53.0766 258.148C53.5193 258.393 53.8604 258.719 54.1 259.125C54.3396 259.531 54.4594 259.977 54.4594 260.461C54.4594 260.81 54.3943 261.138 54.2641 261.445C54.1391 261.747 53.962 262.026 53.7328 262.281C53.5036 262.531 53.238 262.763 52.9359 262.977L50.4125 264.773C50.2354 264.924 50.1 265.076 50.0063 265.227C49.9177 265.378 49.8578 265.526 49.8266 265.672C49.7953 265.812 49.7797 265.953 49.7797 266.094C49.7797 266.38 49.8422 266.635 49.9672 266.859C50.0922 267.083 50.2667 267.26 50.4906 267.391C50.7146 267.516 50.9724 267.578 51.2641 267.578C51.6807 267.578 52.0844 267.484 52.475 267.297C52.8708 267.109 53.225 266.844 53.5375 266.5C53.8552 266.151 54.1052 265.74 54.2875 265.266C54.475 264.792 54.5688 264.268 54.5688 263.695H56.5688C56.5688 264.591 56.4333 265.419 56.1625 266.18C55.8969 266.94 55.4411 267.581 54.7953 268.102C54.7589 268.122 54.7094 268.159 54.6469 268.211C54.5896 268.258 54.5453 268.292 54.5141 268.312C54.0089 268.708 53.4854 269.003 52.9438 269.195C52.4021 269.383 51.7979 269.477 51.1313 269.477C50.3656 269.477 49.7042 269.339 49.1469 269.062C48.5896 268.786 48.1599 268.406 47.8578 267.922C47.5609 267.432 47.4125 266.875 47.4125 266.25C47.4125 265.797 47.501 265.404 47.6781 265.07C47.8604 264.732 48.1104 264.419 48.4281 264.133C48.7458 263.841 49.1104 263.549 49.5219 263.258L51.725 261.82ZM68.9344 269.312H66.4813V257.938H68.9344V269.312ZM72.3875 259.922H63.075V257.938H72.3875V259.922ZM83.5391 263.859C83.5391 265.026 83.3333 266.029 82.9219 266.867C82.5104 267.701 81.9401 268.344 81.2109 268.797C80.4818 269.245 79.638 269.469 78.6797 269.469C77.7214 269.469 76.8724 269.245 76.1328 268.797C75.3984 268.344 74.8229 267.701 74.4062 266.867C73.9896 266.029 73.7812 265.026 73.7812 263.859V263.398C73.7812 262.232 73.987 261.232 74.3984 260.398C74.8151 259.56 75.3906 258.914 76.125 258.461C76.8594 258.008 77.7057 257.781 78.6641 257.781C79.6224 257.781 80.4661 258.008 81.1953 258.461C81.9297 258.914 82.5026 259.56 82.9141 260.398C83.3307 261.232 83.5391 262.232 83.5391 263.398V263.859ZM81.0625 263.383C81.0625 262.602 80.9688 261.945 80.7812 261.414C80.5938 260.883 80.3203 260.482 79.9609 260.211C79.6016 259.94 79.1693 259.805 78.6641 259.805C78.1484 259.805 77.7135 259.94 77.3594 260.211C77.0052 260.482 76.7344 260.883 76.5469 261.414C76.3646 261.945 76.2734 262.602 76.2734 263.383V263.859C76.2734 264.635 76.3672 265.292 76.5547 265.828C76.7422 266.359 77.013 266.763 77.3672 267.039C77.7266 267.315 78.1641 267.453 78.6797 267.453C79.1849 267.453 79.6146 267.315 79.9688 267.039C80.3281 266.763 80.599 266.359 80.7812 265.828C80.9688 265.292 81.0625 264.635 81.0625 263.859V263.383ZM95.3 269.312H92.8469L88.4328 261.992V269.312H85.9797V257.938H88.4328L92.8547 265.266V257.938H95.3V269.312ZM105.756 269.312H99.7484V267.336H105.756V269.312ZM100.537 269.312H98.0766V257.938H100.537V269.312ZM104.975 264.422H99.7484V262.508H104.975V264.422ZM105.748 259.922H99.7484V257.938H105.748V259.922Z" fill="white"/>
<g clip-path="url(#clip0_5_83)">
<path d="M121.922 112.323L101.226 100.375L82.0189 111.463V89.2767L61.3126 77.3286L40.6162 89.2767V111.453L21.4095 100.365L0.703125 112.323V136.229L19.9098 147.318L0.703125 158.406V182.312L21.3995 194.26L40.6062 183.172V205.348L61.3026 217.296L81.9989 205.348V183.172L101.206 194.26L121.922 182.312V158.406L102.715 147.318L121.922 136.229V112.323ZM101.226 102.095L119.692 112.753L82.1389 134.5L82.0189 113.183L101.226 102.095ZM80.5292 114.043L80.6491 135.369L62.0624 146.138V101.665L80.5292 91.0064V114.043ZM42.1059 91.0064L60.5627 101.665V146.138L42.1059 135.449V91.0064ZM21.3995 102.095L40.6062 113.183V134.57L2.94278 112.753L21.3995 102.095ZM2.19292 135.369V114.053L39.8663 135.869L21.4095 146.458L2.19292 135.369ZM2.19292 181.452V160.135L20.6496 170.794V192.11L2.19292 181.452ZM2.94278 158.836L21.7794 147.967L41.366 136.729L59.8228 147.418L21.4095 169.494L2.94278 158.836ZM60.5627 215.147L42.1059 204.488V182.312L60.5627 171.654V215.147ZM42.1059 180.592L40.9861 181.242L22.1494 192.12V170.804L60.5627 148.727V169.934L42.1059 180.592ZM61.3126 100.375L42.8558 89.7167L61.3126 79.0583L79.7693 89.7167L61.3126 100.375ZM80.5191 204.488L62.0624 215.147V171.654L80.5191 182.312V204.488ZM100.476 192.11L81.639 181.232L80.5191 180.582L62.0624 169.924V148.717L100.476 170.794V192.11ZM120.432 181.452L101.975 192.11V170.614L120.432 160.125V181.452ZM119.672 158.836L101.066 169.414L62.8023 147.428L81.389 136.659L99.7358 147.318L100.356 147.677L100.726 147.897L100.846 147.967L119.672 158.836ZM120.432 135.369L101.226 146.458L82.8887 135.799L120.442 114.053V135.369H120.432Z" fill="white"/>
</g>
<g clip-path="url(#clip1_5_83)">
<path d="M182.81 81.8121L199.261 65.3608H147.51L199.414 13.4569L187.777 1.82007L135.882 53.7239V1.97305L119.422 18.4324V81.8121H182.81Z" stroke="#707070" stroke-width="0.999901"/>
</g>
<defs>
<clipPath id="clip0_5_83">
<rect width="121.219" height="139.969" fill="white" transform="translate(0.703125 77.3281)"/>
</clipPath>
<clipPath id="clip1_5_83">
<rect width="81.5469" height="81.5469" fill="white" transform="translate(118.922 0.765625)"/>
</clipPath>
</defs>
</svg>
