<svg width="230" height="279" viewBox="0 0 230 279" fill="none" xmlns="http://www.w3.org/2000/svg">
<path d="M37.2719 257.938L40.0922 266.055L42.9047 257.938H44.975L40.9203 269.312H39.2484L35.2016 257.938H37.2719ZM36.1391 257.938L36.5219 266.367V269.312H34.0609V257.938H36.1391ZM46.1156 257.938V269.312H43.6547V266.367L44.0297 257.938H46.1156ZM50.5719 269.312H47.9547L52.1812 257.938H53.8375L53.6031 260.094L50.5719 269.312ZM53.0484 260.094L52.7906 257.938H54.4547L58.7047 269.312H56.0875L53.0484 260.094ZM56.0094 267.047H49.9781V265.062H56.0094V267.047ZM64.6453 261.789L66.6922 257.938H69.5125L66.2391 263.578L69.5906 269.312H66.7469L64.6453 265.391L62.5359 269.312H59.6922L63.0516 263.578L59.7703 257.938H62.5906L64.6453 261.789ZM73.125 265.352V263.375H75.9844C76.4167 263.375 76.7656 263.305 77.0312 263.164C77.3021 263.023 77.5 262.831 77.625 262.586C77.75 262.341 77.8125 262.06 77.8125 261.742C77.8125 261.424 77.75 261.128 77.625 260.852C77.5 260.57 77.3021 260.346 77.0312 260.18C76.7656 260.008 76.4167 259.922 75.9844 259.922H73.9688V269.312H71.5078V257.938H75.9844C76.8854 257.938 77.6589 258.102 78.3047 258.43C78.9505 258.758 79.4453 259.208 79.7891 259.781C80.1328 260.349 80.3047 260.997 80.3047 261.727C80.3047 262.466 80.1328 263.107 79.7891 263.648C79.4453 264.19 78.9505 264.609 78.3047 264.906C77.6589 265.203 76.8854 265.352 75.9844 265.352H73.125ZM91.3547 257.938V265.414C91.3547 266.294 91.1672 267.036 90.7922 267.641C90.4172 268.245 89.899 268.701 89.2375 269.008C88.5812 269.315 87.826 269.469 86.9719 269.469C86.1125 269.469 85.3495 269.315 84.6828 269.008C84.0214 268.701 83.5031 268.245 83.1281 267.641C82.7583 267.036 82.5734 266.294 82.5734 265.414V257.938H85.0344V265.414C85.0344 265.904 85.1099 266.302 85.2609 266.609C85.412 266.911 85.6333 267.135 85.925 267.281C86.2167 267.422 86.5656 267.492 86.9719 267.492C87.3833 267.492 87.7323 267.422 88.0187 267.281C88.3052 267.135 88.5214 266.911 88.6672 266.609C88.8182 266.302 88.8937 265.904 88.8937 265.414V257.938H91.3547ZM97.225 257.938L100.045 266.055L102.858 257.938H104.928L100.873 269.312H99.2016L95.1547 257.938H97.225ZM96.0922 257.938L96.475 266.367V269.312H94.0141V257.938H96.0922ZM106.069 257.938V269.312H103.608V266.367L103.983 257.938H106.069ZM110.463 265.352V263.375H113.322C113.754 263.375 114.103 263.305 114.369 263.164C114.64 263.023 114.838 262.831 114.963 262.586C115.088 262.341 115.15 262.06 115.15 261.742C115.15 261.424 115.088 261.128 114.963 260.852C114.838 260.57 114.64 260.346 114.369 260.18C114.103 260.008 113.754 259.922 113.322 259.922H111.306V269.312H108.845V257.938H113.322C114.223 257.938 114.996 258.102 115.642 258.43C116.288 258.758 116.783 259.208 117.127 259.781C117.47 260.349 117.642 260.997 117.642 261.727C117.642 262.466 117.47 263.107 117.127 263.648C116.783 264.19 116.288 264.609 115.642 264.906C114.996 265.203 114.223 265.352 113.322 265.352H110.463Z" fill="white"/>
<g clip-path="url(#clip0_5_65)">
<path d="M0.697445 177.113C0.708079 177.168 0.724848 177.222 0.747437 177.273C0.757436 177.303 0.767435 177.343 0.777433 177.373L12.1858 197.13L12.2158 197.16C12.2358 197.19 12.2557 197.22 12.2857 197.26C12.3243 197.302 12.368 197.339 12.4157 197.37C12.4457 197.39 12.4657 197.42 12.4957 197.44C12.5074 197.448 12.5216 197.452 12.5357 197.45C12.6489 197.514 12.776 197.548 12.9057 197.55H58.039L69.2074 216.887L69.2374 216.917C69.2574 216.947 69.2774 216.977 69.3074 217.017C69.346 217.059 69.3896 217.096 69.4374 217.127C69.4674 217.147 69.4873 217.177 69.5173 217.197C69.5291 217.205 69.5432 217.209 69.5573 217.207C69.6705 217.271 69.7976 217.305 69.9273 217.307H138.367C138.5 217.305 138.63 217.271 138.747 217.207L138.837 217.147C138.922 217.091 138.997 217.02 139.057 216.937C139.067 216.917 139.097 216.907 139.107 216.887L150.515 197.13C150.525 197.11 150.525 197.1 150.535 197.08C150.553 197.049 150.566 197.015 150.575 196.98C150.585 196.94 150.595 196.91 150.605 196.87C150.614 196.834 150.617 196.797 150.615 196.76C150.615 196.74 150.625 196.73 150.625 196.71C150.625 196.69 150.615 196.68 150.615 196.66C150.615 196.62 150.605 196.59 150.605 196.55C150.605 196.51 150.585 196.48 150.575 196.44C150.564 196.406 150.55 196.373 150.535 196.34C150.525 196.32 150.525 196.31 150.515 196.29L127.949 157.206L139.107 137.869C139.117 137.849 139.117 137.839 139.127 137.819C139.145 137.788 139.158 137.754 139.167 137.719C139.177 137.679 139.187 137.649 139.197 137.609C139.205 137.573 139.209 137.536 139.207 137.499C139.207 137.479 139.217 137.469 139.217 137.449C139.217 137.429 139.207 137.419 139.207 137.399C139.207 137.359 139.197 137.329 139.197 137.289C139.197 137.249 139.177 137.219 139.167 137.179C139.156 137.145 139.142 137.112 139.127 137.079C139.117 137.059 139.117 137.049 139.107 137.029L104.902 77.7478C104.882 77.7178 104.852 77.6978 104.832 77.6678C104.798 77.6224 104.761 77.579 104.722 77.5378C104.681 77.5045 104.638 77.4744 104.592 77.4479C104.549 77.4186 104.502 77.3951 104.452 77.3779C104.394 77.3587 104.333 77.3453 104.272 77.3379C104.242 77.3379 104.212 77.3179 104.172 77.3179H81.3556C81.3356 77.3179 81.3256 77.3279 81.3056 77.3279C81.2656 77.3279 81.2356 77.3379 81.1956 77.3379L81.0757 77.3679C81.0457 77.3779 81.0057 77.3979 80.9757 77.4079C80.9457 77.4179 80.9457 77.4179 80.9257 77.4279C80.9143 77.4402 80.9007 77.4504 80.8857 77.4579C80.8533 77.478 80.8232 77.5015 80.7957 77.5278C80.7666 77.5519 80.7398 77.5787 80.7157 77.6078C80.6957 77.6378 80.6657 77.6678 80.6457 77.6978C80.6334 77.7092 80.6232 77.7228 80.6157 77.7378L58.049 116.832H35.7323C35.7123 116.832 35.7023 116.842 35.6823 116.842C35.6423 116.842 35.6123 116.852 35.5723 116.852C35.5323 116.852 35.4923 116.872 35.4623 116.882C35.4283 116.894 35.395 116.907 35.3624 116.922C35.3424 116.932 35.3324 116.932 35.3124 116.942C35.2924 116.952 35.2924 116.962 35.2724 116.972C35.24 116.992 35.2099 117.016 35.1824 117.042C35.1533 117.066 35.1265 117.093 35.1024 117.122C35.0824 117.152 35.0524 117.182 35.0324 117.212C35.0201 117.223 35.0099 117.237 35.0024 117.252L0.787432 176.533C0.772892 176.565 0.762799 176.599 0.757436 176.633C0.736247 176.685 0.719522 176.739 0.707443 176.793C0.691572 176.845 0.684806 176.899 0.687446 176.953C0.685791 177.007 0.689138 177.06 0.697445 177.113ZM103.682 79.0176L136.927 136.599H116.071L82.8154 79.0176H103.682ZM115.091 176.113H94.2237L116.061 138.279H136.927L115.091 176.113ZM81.3556 79.8575L114.601 137.439L92.7639 175.273L82.3355 157.196L93.5038 137.859C93.5138 137.839 93.5138 137.829 93.5238 137.809C93.5414 137.778 93.5548 137.744 93.5638 137.709C93.5738 137.669 93.5838 137.639 93.5938 137.599C93.6021 137.563 93.6055 137.526 93.6038 137.489C93.6038 137.469 93.6138 137.459 93.6138 137.439C93.6138 137.419 93.6038 137.409 93.6038 137.389C93.6038 137.349 93.5938 137.319 93.5938 137.279C93.5938 137.239 93.5738 137.209 93.5638 137.169C93.5522 137.135 93.5389 137.102 93.5238 137.069C93.5138 137.049 93.5138 137.039 93.5038 137.019L82.0855 117.262C82.0655 117.232 82.0355 117.212 82.0155 117.182C81.9813 117.137 81.9446 117.093 81.9055 117.052C81.8646 117.019 81.8211 116.989 81.7755 116.962C81.731 116.935 81.6841 116.911 81.6356 116.892C81.581 116.872 81.5235 116.862 81.4656 116.862C81.4356 116.862 81.3956 116.842 81.3656 116.842H60.0087L81.3556 79.8575ZM58.549 118.532H80.8757L91.3141 136.599H47.6306L37.1921 118.532H58.549ZM35.7323 119.372L46.1608 137.439L12.9157 195.021L2.48718 176.953L35.7323 119.372ZM14.3854 195.86L47.6306 138.279H91.3141L80.8757 156.356H58.549C58.529 156.356 58.519 156.366 58.499 156.366C58.459 156.366 58.429 156.376 58.389 156.376L58.269 156.406C58.239 156.416 58.199 156.436 58.169 156.446C58.139 156.456 58.139 156.456 58.119 156.466C58.1076 156.479 58.0941 156.489 58.079 156.496C58.0467 156.516 58.0165 156.54 57.989 156.566C57.9599 156.59 57.9331 156.617 57.909 156.646C57.889 156.676 57.8591 156.706 57.8391 156.736C57.8291 156.746 57.8091 156.756 57.8091 156.776L46.4007 176.533C46.3862 176.565 46.3761 176.599 46.3707 176.633C46.3496 176.685 46.3328 176.739 46.3207 176.793C46.3121 176.846 46.3088 176.9 46.3108 176.953C46.3091 177.007 46.3124 177.06 46.3207 177.113C46.3314 177.168 46.3481 177.222 46.3707 177.273C46.3807 177.303 46.3907 177.343 46.4007 177.373L57.0792 195.86H14.3854ZM137.907 215.618H71.4171L81.8455 197.55H148.336L137.907 215.618ZM69.9573 214.778L48.1205 176.953L58.559 158.876L80.3958 196.7L69.9573 214.778ZM148.336 195.86H81.8455L60.0087 158.036H80.8757L92.044 177.373L92.074 177.403C92.0939 177.439 92.1174 177.472 92.144 177.503C92.1826 177.545 92.2263 177.582 92.274 177.613C92.304 177.633 92.324 177.663 92.354 177.683C92.3657 177.691 92.3799 177.695 92.394 177.693C92.5072 177.756 92.6343 177.791 92.7639 177.793H115.581C115.713 177.791 115.844 177.757 115.961 177.693L116.051 177.633C116.135 177.576 116.21 177.505 116.27 177.423C116.28 177.403 116.31 177.393 116.32 177.373L126.999 158.876L148.336 195.86Z" fill="white"/>
</g>
<g clip-path="url(#clip1_5_65)">
<path d="M211.513 81.8121L227.964 65.3608H176.213L228.117 13.4569L216.48 1.82007L164.585 53.7239V1.97305L148.125 18.4324V81.8121H211.513Z" stroke="#707070" stroke-width="0.999901"/>
</g>
<defs>
<clipPath id="clip0_5_65">
<rect width="149.938" height="140" fill="white" transform="translate(0.6875 77.3125)"/>
</clipPath>
<clipPath id="clip1_5_65">
<rect width="81.5469" height="81.5469" fill="white" transform="translate(147.625 0.765625)"/>
</clipPath>
</defs>
</svg>
