<svg width="230" height="279" viewBox="0 0 230 279" fill="none" xmlns="http://www.w3.org/2000/svg">
<path d="M3.25156 264.391L3.23594 262.68H5.66563C6.28542 262.68 6.74375 262.565 7.04063 262.336C7.3375 262.102 7.48594 261.766 7.48594 261.328C7.48594 260.828 7.34011 260.469 7.04844 260.25C6.75677 260.031 6.29583 259.922 5.66563 259.922H4.10313V269.312H1.64219V257.938H5.66563C7.00417 257.938 8.05104 258.193 8.80625 258.703C9.56146 259.214 9.93906 260 9.93906 261.062C9.93906 261.526 9.83229 261.961 9.61875 262.367C9.41042 262.768 9.07708 263.094 8.61875 263.344C8.16042 263.594 7.56406 263.727 6.82969 263.742L6.14219 264.391H3.25156ZM2.57969 269.312L3.53281 267.336H6.04063C6.62917 267.336 7.05886 267.203 7.32969 266.938C7.60052 266.667 7.73594 266.331 7.73594 265.93C7.73594 265.612 7.68125 265.339 7.57188 265.109C7.4625 264.88 7.29063 264.703 7.05625 264.578C6.82708 264.453 6.5224 264.391 6.14219 264.391H3.86094L3.87656 262.68H6.69688L7.26719 263.359C7.97031 263.344 8.53542 263.461 8.9625 263.711C9.38958 263.956 9.69948 264.279 9.89219 264.68C10.0849 265.081 10.1813 265.505 10.1813 265.953C10.1813 267.062 9.82448 267.901 9.11094 268.469C8.3974 269.031 7.37396 269.312 6.04063 269.312H2.57969ZM14.1219 269.312H11.5047L15.7313 257.938H17.3875L17.1531 260.094L14.1219 269.312ZM16.5984 260.094L16.3406 257.938H18.0047L22.2547 269.312H19.6375L16.5984 260.094ZM19.5594 267.047H13.5281V265.062H19.5594V267.047ZM31.4531 269.312H25.7422V267.336H31.4531V269.312ZM26.5234 269.312H24.0703V257.938H26.5234V269.312ZM35.3938 269.312H32.7766L37.0031 257.938H38.6594L38.425 260.094L35.3938 269.312ZM37.8703 260.094L37.6125 257.938H39.2766L43.5266 269.312H40.9094L37.8703 260.094ZM40.8313 267.047H34.8V265.062H40.8313V267.047ZM54.6625 269.312H52.2094L47.7953 261.992V269.312H45.3422V257.938H47.7953L52.2172 265.266V257.938H54.6625V269.312ZM66.4469 265.5C66.4 266.271 66.1891 266.956 65.8141 267.555C65.4391 268.154 64.9156 268.622 64.2438 268.961C63.5771 269.299 62.775 269.469 61.8375 269.469C60.8583 269.469 60.0146 269.247 59.3063 268.805C58.5979 268.357 58.0536 267.721 57.6734 266.898C57.2932 266.076 57.1031 265.102 57.1031 263.977V263.281C57.1031 262.151 57.2984 261.174 57.6891 260.352C58.0849 259.529 58.637 258.893 59.3453 258.445C60.0536 257.997 60.8896 257.773 61.8531 257.773C62.8115 257.773 63.6188 257.951 64.275 258.305C64.9365 258.654 65.4469 259.133 65.8063 259.742C66.1708 260.352 66.3896 261.047 66.4625 261.828H64.0094C63.9625 261.161 63.7802 260.656 63.4625 260.312C63.15 259.964 62.6135 259.789 61.8531 259.789C61.3479 259.789 60.9286 259.911 60.5953 260.156C60.262 260.401 60.012 260.781 59.8453 261.297C59.6786 261.807 59.5953 262.464 59.5953 263.266V263.977C59.5953 264.763 59.6682 265.414 59.8141 265.93C59.9651 266.445 60.2047 266.831 60.5328 267.086C60.8609 267.336 61.2958 267.461 61.8375 267.461C62.3115 267.461 62.7021 267.391 63.0094 267.25C63.3167 267.104 63.551 266.885 63.7125 266.594C63.874 266.302 63.9703 265.938 64.0016 265.5H66.4469ZM76.4031 269.312H70.3953V267.336H76.4031V269.312ZM71.1844 269.312H68.7234V257.938H71.1844V269.312ZM75.6219 264.422H70.3953V262.508H75.6219V264.422ZM76.3953 259.922H70.3953V257.938H76.3953V259.922ZM85.7844 269.312H83.3234V257.938H85.7844V269.312ZM90.2453 264.711H85.1281V262.734H90.2453V264.711ZM90.7844 259.922H85.1281V257.938H90.7844V259.922ZM95.4984 269.312H93.0453V257.938H95.4984V269.312ZM103.603 269.312H101.15V257.938H103.603V269.312ZM107.056 259.922H97.7438V257.938H107.056V259.922ZM118.466 269.312H116.013L111.598 261.992V269.312H109.145V257.938H111.598L116.02 265.266V257.938H118.466V269.312ZM128.922 269.312H122.914V267.336H128.922V269.312ZM123.703 269.312H121.242V257.938H123.703V269.312ZM128.141 264.422H122.914V262.508H128.141V264.422ZM128.914 259.922H122.914V257.938H128.914V259.922ZM136.925 266.312C136.925 266.057 136.87 265.836 136.761 265.648C136.652 265.461 136.441 265.284 136.128 265.117C135.821 264.945 135.365 264.763 134.761 264.57C134.251 264.404 133.764 264.216 133.3 264.008C132.842 263.794 132.435 263.547 132.081 263.266C131.727 262.984 131.448 262.656 131.245 262.281C131.042 261.906 130.941 261.469 130.941 260.969C130.941 260.328 131.123 259.771 131.487 259.297C131.852 258.818 132.352 258.445 132.987 258.18C133.628 257.914 134.36 257.781 135.183 257.781C136.027 257.781 136.764 257.93 137.394 258.227C138.024 258.523 138.511 258.938 138.855 259.469C139.204 259.995 139.378 260.604 139.378 261.297H136.933C136.933 260.99 136.868 260.719 136.737 260.484C136.607 260.245 136.409 260.06 136.144 259.93C135.883 259.794 135.55 259.727 135.144 259.727C134.753 259.727 134.428 259.784 134.167 259.898C133.907 260.013 133.711 260.164 133.581 260.352C133.456 260.539 133.394 260.75 133.394 260.984C133.394 261.229 133.48 261.443 133.652 261.625C133.823 261.807 134.073 261.977 134.402 262.133C134.73 262.284 135.128 262.432 135.597 262.578C136.425 262.828 137.12 263.122 137.683 263.461C138.245 263.799 138.667 264.201 138.948 264.664C139.235 265.122 139.378 265.667 139.378 266.297C139.378 266.964 139.206 267.534 138.862 268.008C138.524 268.482 138.045 268.844 137.425 269.094C136.805 269.344 136.076 269.469 135.237 269.469C134.665 269.469 134.102 269.396 133.55 269.25C133.003 269.099 132.506 268.87 132.058 268.562C131.615 268.25 131.261 267.857 130.995 267.383C130.73 266.909 130.597 266.346 130.597 265.695H133.058C133.058 266.034 133.107 266.32 133.206 266.555C133.31 266.784 133.456 266.971 133.644 267.117C133.836 267.263 134.066 267.37 134.331 267.438C134.602 267.5 134.904 267.531 135.237 267.531C135.628 267.531 135.946 267.479 136.191 267.375C136.441 267.266 136.626 267.12 136.745 266.938C136.865 266.75 136.925 266.542 136.925 266.312ZM147.6 266.312C147.6 266.057 147.545 265.836 147.436 265.648C147.327 265.461 147.116 265.284 146.803 265.117C146.496 264.945 146.04 264.763 145.436 264.57C144.926 264.404 144.439 264.216 143.975 264.008C143.517 263.794 143.11 263.547 142.756 263.266C142.402 262.984 142.123 262.656 141.92 262.281C141.717 261.906 141.616 261.469 141.616 260.969C141.616 260.328 141.798 259.771 142.163 259.297C142.527 258.818 143.027 258.445 143.663 258.18C144.303 257.914 145.035 257.781 145.858 257.781C146.702 257.781 147.439 257.93 148.069 258.227C148.699 258.523 149.186 258.938 149.53 259.469C149.879 259.995 150.053 260.604 150.053 261.297H147.608C147.608 260.99 147.543 260.719 147.413 260.484C147.282 260.245 147.084 260.06 146.819 259.93C146.558 259.794 146.225 259.727 145.819 259.727C145.428 259.727 145.103 259.784 144.842 259.898C144.582 260.013 144.386 260.164 144.256 260.352C144.131 260.539 144.069 260.75 144.069 260.984C144.069 261.229 144.155 261.443 144.327 261.625C144.498 261.807 144.748 261.977 145.077 262.133C145.405 262.284 145.803 262.432 146.272 262.578C147.1 262.828 147.795 263.122 148.358 263.461C148.92 263.799 149.342 264.201 149.623 264.664C149.91 265.122 150.053 265.667 150.053 266.297C150.053 266.964 149.881 267.534 149.538 268.008C149.199 268.482 148.72 268.844 148.1 269.094C147.48 269.344 146.751 269.469 145.913 269.469C145.34 269.469 144.777 269.396 144.225 269.25C143.678 269.099 143.181 268.87 142.733 268.562C142.29 268.25 141.936 267.857 141.67 267.383C141.405 266.909 141.272 266.346 141.272 265.695H143.733C143.733 266.034 143.782 266.32 143.881 266.555C143.985 266.784 144.131 266.971 144.319 267.117C144.511 267.263 144.741 267.37 145.006 267.438C145.277 267.5 145.579 267.531 145.913 267.531C146.303 267.531 146.621 267.479 146.866 267.375C147.116 267.266 147.301 267.12 147.42 266.938C147.54 266.75 147.6 266.542 147.6 266.312Z" fill="white"/>
<g clip-path="url(#clip0_5_102)">
<path fill-rule="evenodd" clip-rule="evenodd" d="M144.249 126.134C139.653 111.616 130.451 98.992 118.037 90.1736C105.622 81.3551 90.6722 76.8229 75.451 77.2635C60.2298 77.704 45.5668 83.0933 33.6833 92.6149C21.7999 102.137 13.3435 115.272 9.59495 130.031C5.84644 144.79 7.01016 160.368 12.9098 174.407C18.8095 188.445 29.1237 200.178 42.29 207.828C55.4562 215.479 70.7571 218.63 85.8748 216.804C100.992 214.978 115.103 208.275 126.07 197.71H126.1L126.669 197.14C129.42 194.377 130.962 190.636 130.958 186.737C130.954 182.839 129.403 179.101 126.646 176.344C123.89 173.588 120.152 172.037 116.253 172.033C112.355 172.028 108.613 173.57 105.851 176.321V176.311C100.215 181.826 93.0944 185.579 85.3593 187.11C77.6243 188.641 69.6108 187.884 62.2993 184.932C54.9879 181.979 48.6957 176.959 44.1931 170.486C39.6904 164.013 37.1724 156.368 36.9473 148.486C36.7223 140.604 38.7999 132.827 42.9259 126.108C47.0519 119.388 53.0474 114.017 60.1785 110.652C67.3095 107.287 75.2668 106.074 83.0766 107.162C90.8864 108.249 98.2099 111.589 104.151 116.774L106.121 118.754C107.041 119.687 107.555 120.946 107.551 122.257C107.547 123.568 107.024 124.823 106.097 125.75C105.17 126.677 103.915 127.2 102.604 127.204C101.293 127.208 100.034 126.694 99.1009 125.774L96.3711 123.034L96.2711 123.134C96.2277 123.012 96.1556 122.902 96.061 122.814C91.4259 119.304 85.8905 117.18 80.097 116.689C74.3036 116.199 68.4898 117.361 63.3304 120.042C58.171 122.722 53.8776 126.811 50.9485 131.834C48.0193 136.856 46.5747 142.606 46.782 148.417C46.9894 154.227 48.8404 159.86 52.1201 164.661C55.3999 169.461 59.9738 173.234 65.3111 175.54C70.6485 177.846 76.5304 178.591 82.2741 177.688C88.0179 176.786 93.388 174.273 97.761 170.441C98.5844 169.521 99.0362 168.328 99.0288 167.094C99.0214 165.859 98.5553 164.672 97.721 163.762C95.7511 161.632 92.3813 162.192 90.7113 163.562C87.6667 166.038 83.9869 167.608 80.0924 168.092C76.1979 168.576 72.2457 167.954 68.6876 166.299C65.1294 164.643 62.1087 162.02 59.9706 158.729C57.8325 155.438 56.6633 151.612 56.5965 147.688C56.5297 143.765 57.5681 139.901 59.5929 136.539C61.6178 133.177 64.5474 130.453 68.0472 128.677C71.547 126.902 75.4757 126.146 79.3844 126.497C83.2931 126.849 87.0243 128.292 90.1514 130.663L90.1813 130.643L91.9513 132.413C94.7142 135.164 98.4553 136.706 102.354 136.702C106.253 136.697 109.99 135.147 112.747 132.39C115.504 129.633 117.054 125.896 117.059 121.997C117.063 118.098 115.521 114.357 112.77 111.594L112.55 111.374C112.516 111.217 112.44 111.072 112.33 110.954C105.167 104.1 96.1407 99.5119 86.3816 97.7652C76.6225 96.0186 66.5649 97.1909 57.4691 101.135C48.3734 105.08 40.644 111.621 35.2497 119.939C29.8553 128.258 27.036 137.983 27.1447 147.896C27.2535 157.81 30.2855 167.471 35.8611 175.669C41.4366 183.867 49.3077 190.237 58.4877 193.981C67.6678 197.725 77.7487 198.676 87.4671 196.716C97.1856 194.756 106.109 189.971 113.12 182.961C113.135 182.926 113.152 182.893 113.17 182.861C114.073 182.017 115.259 181.541 116.495 181.527C117.731 181.513 118.927 181.962 119.848 182.786C120.77 183.609 121.35 184.748 121.474 185.978C121.598 187.207 121.258 188.439 120.52 189.43C111.389 198.757 99.4715 204.862 86.5668 206.822C73.6621 208.782 60.4699 206.492 48.9809 200.297C37.4919 194.102 28.3293 184.339 22.8758 172.48C17.4223 160.621 15.9736 147.31 18.7485 134.556C21.5234 121.801 28.3713 110.295 38.2588 101.774C48.1463 93.2531 60.5371 88.1788 73.5613 87.3172C86.5856 86.4556 99.5367 89.8534 110.461 96.9979C121.384 104.142 129.688 114.646 134.119 126.924C134.849 128.953 136.559 131.913 140.049 131.693C140.724 131.693 141.39 131.535 141.994 131.234C142.598 130.933 143.124 130.496 143.531 129.957C143.938 129.419 144.214 128.793 144.339 128.13C144.463 127.466 144.433 126.783 144.249 126.134Z" stroke="white" stroke-width="1.9999" stroke-miterlimit="10" stroke-linecap="round" stroke-linejoin="round"/>
</g>
<g clip-path="url(#clip1_5_102)">
<path d="M212.2 81.8121L228.652 65.3608H176.901L228.805 13.4569L217.168 1.82007L165.273 53.7239V1.97305L148.812 18.4324V81.8121H212.2Z" stroke="#707070" stroke-width="0.999901"/>
</g>
<defs>
<clipPath id="clip0_5_102">
<rect width="138.922" height="142" fill="white" transform="translate(6.51562 76.3125)"/>
</clipPath>
<clipPath id="clip1_5_102">
<rect width="81.5469" height="81.5469" fill="white" transform="translate(148.312 0.765625)"/>
</clipPath>
</defs>
</svg>
