<svg width="220" height="279" viewBox="0 0 220 279" fill="none" xmlns="http://www.w3.org/2000/svg">
<path d="M47.1031 269.312H44.6422V257.938H47.1031V269.312ZM51.5641 264.711H46.4469V262.734H51.5641V264.711ZM52.1031 259.922H46.4469V257.938H52.1031V259.922ZM63.6297 263.859C63.6297 265.026 63.424 266.029 63.0125 266.867C62.601 267.701 62.0307 268.344 61.3016 268.797C60.5724 269.245 59.7286 269.469 58.7703 269.469C57.812 269.469 56.963 269.245 56.2234 268.797C55.4891 268.344 54.9135 267.701 54.4969 266.867C54.0802 266.029 53.8719 265.026 53.8719 263.859V263.398C53.8719 262.232 54.0776 261.232 54.4891 260.398C54.9057 259.56 55.4812 258.914 56.2156 258.461C56.95 258.008 57.7964 257.781 58.7547 257.781C59.713 257.781 60.5568 258.008 61.2859 258.461C62.0203 258.914 62.5932 259.56 63.0047 260.398C63.4214 261.232 63.6297 262.232 63.6297 263.398V263.859ZM61.1531 263.383C61.1531 262.602 61.0594 261.945 60.8719 261.414C60.6844 260.883 60.4109 260.482 60.0516 260.211C59.6922 259.94 59.2599 259.805 58.7547 259.805C58.2391 259.805 57.8042 259.94 57.45 260.211C57.0958 260.482 56.825 260.883 56.6375 261.414C56.4552 261.945 56.3641 262.602 56.3641 263.383V263.859C56.3641 264.635 56.4578 265.292 56.6453 265.828C56.8328 266.359 57.1036 266.763 57.4578 267.039C57.8172 267.315 58.2547 267.453 58.7703 267.453C59.2755 267.453 59.7052 267.315 60.0594 267.039C60.4187 266.763 60.6896 266.359 60.8719 265.828C61.0594 265.292 61.1531 264.635 61.1531 263.859V263.383ZM70.3594 257.938C71.2396 257.938 71.9948 258.07 72.625 258.336C73.2604 258.596 73.7474 258.982 74.0859 259.492C74.4245 259.997 74.5938 260.625 74.5938 261.375C74.5938 262 74.4896 262.531 74.2812 262.969C74.0781 263.406 73.7917 263.768 73.4219 264.055C73.0521 264.341 72.6172 264.573 72.1172 264.75L71.3359 265.195H67.6875L67.6719 263.211H70.3516C70.7474 263.211 71.0781 263.146 71.3438 263.016C71.6094 262.88 71.8073 262.69 71.9375 262.445C72.0677 262.201 72.1328 261.911 72.1328 261.578C72.1328 261.068 71.987 260.664 71.6953 260.367C71.4089 260.07 70.9635 259.922 70.3594 259.922H68.5312V269.312H66.0781V257.938H70.3594ZM69.8125 264.258L72.4062 264.242L75.0078 269.195V269.312H72.375L69.8125 264.258ZM85.4172 269.312H77.3391V267.336H85.4172V269.312ZM78.4328 269.312H76.7063V267.898L83.6281 257.938H85.3V259.312L78.4328 269.312ZM84.4641 259.922H76.6906V257.938H84.4641V259.922ZM89.4437 269.312H86.8266L91.0531 257.938H92.7094L92.475 260.094L89.4437 269.312ZM91.9203 260.094L91.6625 257.938H93.3266L97.5766 269.312H94.9594L91.9203 260.094ZM94.8812 267.047H88.85V265.062H94.8812V267.047Z" fill="white"/>
<g clip-path="url(#clip0_5_93)">
<path d="M115.171 84.3813L88.9967 99.378L89.0466 138.419L52.6148 98.8681L25.9107 84.3913L0.65625 98.6682V179.86L26.1806 194.107L52.3748 179.61V172.952L87.9469 210.243L140.625 179.83V98.6682L115.171 84.3813ZM91.4461 102.177L116.111 116.324V167.793L91.4862 141.069L91.4461 102.177ZM3.10572 101.478L25.4608 114.385L87.0771 180.59L87.0971 205.784L25.0409 140.719V190.658L3.10572 178.431V101.478ZM49.9254 170.602V178.181L27.3704 190.658V146.778L50.0653 170.602H49.9254ZM138.296 178.441L89.5265 206.584L89.5066 179.64L26.9904 112.475L4.33543 99.398L25.9506 87.1707L51.125 100.818L118.56 174.011V114.915L92.6758 100.078L115.241 87.1607L138.296 100.078V178.441Z" fill="white"/>
</g>
<g clip-path="url(#clip1_5_93)">
<path d="M201.513 81.8121L217.964 65.3608H166.213L218.117 13.4569L206.48 1.82007L154.585 53.7239V1.97305L138.125 18.4324V81.8121H201.513Z" stroke="#707070" stroke-width="0.999901"/>
</g>
<defs>
<clipPath id="clip0_5_93">
<rect width="139.969" height="125.875" fill="white" transform="translate(0.65625 84.375)"/>
</clipPath>
<clipPath id="clip1_5_93">
<rect width="81.5469" height="81.5469" fill="white" transform="translate(137.625 0.765625)"/>
</clipPath>
</defs>
</svg>
