<svg width="219" height="279" viewBox="0 0 219 279" fill="none" xmlns="http://www.w3.org/2000/svg">
<path d="M16.1328 264.391L16.1172 262.68H18.5469C19.1667 262.68 19.625 262.565 19.9219 262.336C20.2188 262.102 20.3672 261.766 20.3672 261.328C20.3672 260.828 20.2214 260.469 19.9297 260.25C19.638 260.031 19.1771 259.922 18.5469 259.922H16.9844V269.312H14.5234V257.938H18.5469C19.8854 257.938 20.9323 258.193 21.6875 258.703C22.4427 259.214 22.8203 260 22.8203 261.062C22.8203 261.526 22.7135 261.961 22.5 262.367C22.2917 262.768 21.9583 263.094 21.5 263.344C21.0417 263.594 20.4453 263.727 19.7109 263.742L19.0234 264.391H16.1328ZM15.4609 269.312L16.4141 267.336H18.9219C19.5104 267.336 19.9401 267.203 20.2109 266.938C20.4818 266.667 20.6172 266.331 20.6172 265.93C20.6172 265.612 20.5625 265.339 20.4531 265.109C20.3438 264.88 20.1719 264.703 19.9375 264.578C19.7083 264.453 19.4036 264.391 19.0234 264.391H16.7422L16.7578 262.68H19.5781L20.1484 263.359C20.8516 263.344 21.4167 263.461 21.8438 263.711C22.2708 263.956 22.5807 264.279 22.7734 264.68C22.9661 265.081 23.0625 265.505 23.0625 265.953C23.0625 267.062 22.7057 267.901 21.9922 268.469C21.2786 269.031 20.2552 269.312 18.9219 269.312H15.4609ZM34.9953 263.859C34.9953 265.026 34.7896 266.029 34.3781 266.867C33.9667 267.701 33.3964 268.344 32.6672 268.797C31.938 269.245 31.0943 269.469 30.1359 269.469C29.1776 269.469 28.3286 269.245 27.5891 268.797C26.8547 268.344 26.2792 267.701 25.8625 266.867C25.4458 266.029 25.2375 265.026 25.2375 263.859V263.398C25.2375 262.232 25.4432 261.232 25.8547 260.398C26.2714 259.56 26.8469 258.914 27.5813 258.461C28.3156 258.008 29.162 257.781 30.1203 257.781C31.0786 257.781 31.9224 258.008 32.6516 258.461C33.3859 258.914 33.9589 259.56 34.3703 260.398C34.787 261.232 34.9953 262.232 34.9953 263.398V263.859ZM32.5188 263.383C32.5188 262.602 32.425 261.945 32.2375 261.414C32.05 260.883 31.7766 260.482 31.4172 260.211C31.0578 259.94 30.6255 259.805 30.1203 259.805C29.6047 259.805 29.1698 259.94 28.8156 260.211C28.4615 260.482 28.1906 260.883 28.0031 261.414C27.8208 261.945 27.7297 262.602 27.7297 263.383V263.859C27.7297 264.635 27.8234 265.292 28.0109 265.828C28.1984 266.359 28.4693 266.763 28.8234 267.039C29.1828 267.315 29.6203 267.453 30.1359 267.453C30.6411 267.453 31.0708 267.315 31.425 267.039C31.7844 266.763 32.0552 266.359 32.2375 265.828C32.425 265.292 32.5188 264.635 32.5188 263.859V263.383ZM38.4984 269.312L38.5141 267.336H40.9594C41.5583 267.336 42.0609 267.203 42.4672 266.938C42.8786 266.672 43.1885 266.281 43.3969 265.766C43.6052 265.25 43.7094 264.617 43.7094 263.867V263.367C43.7094 262.612 43.6052 261.979 43.3969 261.469C43.1885 260.958 42.8813 260.573 42.475 260.312C42.0688 260.052 41.5688 259.922 40.975 259.922H38.4516V257.938H40.975C42.001 257.938 42.9047 258.167 43.6859 258.625C44.4724 259.083 45.087 259.721 45.5297 260.539C45.9724 261.352 46.1938 262.299 46.1938 263.383V263.867C46.1938 264.951 45.9724 265.901 45.5297 266.719C45.087 267.536 44.4724 268.174 43.6859 268.633C42.9047 269.086 41.9958 269.312 40.9594 269.312H38.4984ZM39.8969 269.312H37.4359V257.938H39.8969V269.312ZM52.6109 262.984L54.9 257.938H57.5719L53.8609 265.195V269.312H51.3688V265.195L47.65 257.938H50.3297L52.6109 262.984ZM70.0469 266.312C70.0469 266.057 69.9922 265.836 69.8828 265.648C69.7734 265.461 69.5625 265.284 69.25 265.117C68.9427 264.945 68.487 264.763 67.8828 264.57C67.3724 264.404 66.8854 264.216 66.4219 264.008C65.9635 263.794 65.5573 263.547 65.2031 263.266C64.849 262.984 64.5703 262.656 64.3672 262.281C64.1641 261.906 64.0625 261.469 64.0625 260.969C64.0625 260.328 64.2448 259.771 64.6094 259.297C64.974 258.818 65.474 258.445 66.1094 258.18C66.75 257.914 67.4818 257.781 68.3047 257.781C69.1484 257.781 69.8854 257.93 70.5156 258.227C71.1458 258.523 71.6328 258.938 71.9766 259.469C72.3255 259.995 72.5 260.604 72.5 261.297H70.0547C70.0547 260.99 69.9896 260.719 69.8594 260.484C69.7292 260.245 69.5312 260.06 69.2656 259.93C69.0052 259.794 68.6719 259.727 68.2656 259.727C67.875 259.727 67.5495 259.784 67.2891 259.898C67.0286 260.013 66.8333 260.164 66.7031 260.352C66.5781 260.539 66.5156 260.75 66.5156 260.984C66.5156 261.229 66.6016 261.443 66.7734 261.625C66.9453 261.807 67.1953 261.977 67.5234 262.133C67.8516 262.284 68.25 262.432 68.7188 262.578C69.5469 262.828 70.2422 263.122 70.8047 263.461C71.3672 263.799 71.7891 264.201 72.0703 264.664C72.3568 265.122 72.5 265.667 72.5 266.297C72.5 266.964 72.3281 267.534 71.9844 268.008C71.6458 268.482 71.1667 268.844 70.5469 269.094C69.9271 269.344 69.1979 269.469 68.3594 269.469C67.7865 269.469 67.224 269.396 66.6719 269.25C66.125 269.099 65.6276 268.87 65.1797 268.562C64.737 268.25 64.3828 267.857 64.1172 267.383C63.8516 266.909 63.7188 266.346 63.7188 265.695H66.1797C66.1797 266.034 66.2292 266.32 66.3281 266.555C66.4323 266.784 66.5781 266.971 66.7656 267.117C66.9583 267.263 67.1875 267.37 67.4531 267.438C67.724 267.5 68.026 267.531 68.3594 267.531C68.75 267.531 69.0677 267.479 69.3125 267.375C69.5625 267.266 69.7474 267.12 69.8672 266.938C69.987 266.75 70.0469 266.542 70.0469 266.312ZM83.8469 265.5C83.8 266.271 83.5891 266.956 83.2141 267.555C82.8391 268.154 82.3156 268.622 81.6437 268.961C80.9771 269.299 80.175 269.469 79.2375 269.469C78.2583 269.469 77.4146 269.247 76.7062 268.805C75.9979 268.357 75.4536 267.721 75.0734 266.898C74.6932 266.076 74.5031 265.102 74.5031 263.977V263.281C74.5031 262.151 74.6984 261.174 75.0891 260.352C75.4849 259.529 76.037 258.893 76.7453 258.445C77.4536 257.997 78.2896 257.773 79.2531 257.773C80.2115 257.773 81.0187 257.951 81.675 258.305C82.3365 258.654 82.8469 259.133 83.2062 259.742C83.5708 260.352 83.7896 261.047 83.8625 261.828H81.4094C81.3625 261.161 81.1802 260.656 80.8625 260.312C80.55 259.964 80.0135 259.789 79.2531 259.789C78.7479 259.789 78.3286 259.911 77.9953 260.156C77.662 260.401 77.412 260.781 77.2453 261.297C77.0786 261.807 76.9953 262.464 76.9953 263.266V263.977C76.9953 264.763 77.0682 265.414 77.2141 265.93C77.3651 266.445 77.6047 266.831 77.9328 267.086C78.2609 267.336 78.6958 267.461 79.2375 267.461C79.7115 267.461 80.1021 267.391 80.4094 267.25C80.7167 267.104 80.951 266.885 81.1125 266.594C81.274 266.302 81.3703 265.938 81.4016 265.5H83.8469ZM94.8109 257.938V265.414C94.8109 266.294 94.6234 267.036 94.2484 267.641C93.8734 268.245 93.3552 268.701 92.6937 269.008C92.0375 269.315 91.2823 269.469 90.4281 269.469C89.5687 269.469 88.8057 269.315 88.1391 269.008C87.4776 268.701 86.9594 268.245 86.5844 267.641C86.2146 267.036 86.0297 266.294 86.0297 265.414V257.938H88.4906V265.414C88.4906 265.904 88.5661 266.302 88.7172 266.609C88.8682 266.911 89.0896 267.135 89.3812 267.281C89.6729 267.422 90.0219 267.492 90.4281 267.492C90.8396 267.492 91.1885 267.422 91.475 267.281C91.7615 267.135 91.9776 266.911 92.1234 266.609C92.2745 266.302 92.35 265.904 92.35 265.414V257.938H94.8109ZM104.853 269.312H99.1422V267.336H104.853V269.312ZM99.9234 269.312H97.4703V257.938H99.9234V269.312ZM108.559 265.352V263.375H111.419C111.851 263.375 112.2 263.305 112.466 263.164C112.736 263.023 112.934 262.831 113.059 262.586C113.184 262.341 113.247 262.06 113.247 261.742C113.247 261.424 113.184 261.128 113.059 260.852C112.934 260.57 112.736 260.346 112.466 260.18C112.2 260.008 111.851 259.922 111.419 259.922H109.403V269.312H106.942V257.938H111.419C112.32 257.938 113.093 258.102 113.739 258.43C114.385 258.758 114.88 259.208 115.223 259.781C115.567 260.349 115.739 260.997 115.739 261.727C115.739 262.466 115.567 263.107 115.223 263.648C114.88 264.19 114.385 264.609 113.739 264.906C113.093 265.203 112.32 265.352 111.419 265.352H108.559ZM123.297 269.312H120.844V257.938H123.297V269.312ZM126.75 259.922H117.438V257.938H126.75V259.922Z" fill="white"/>
<g clip-path="url(#clip0_5_111)">
<path d="M116.898 187.962C116.908 187.952 116.908 187.932 116.918 187.922C116.938 187.892 116.951 187.858 116.958 187.822C116.968 187.792 116.978 187.752 116.988 187.722C116.997 187.69 117 187.656 116.998 187.622C116.998 187.602 117.008 187.592 117.008 187.572C117.008 187.552 116.998 187.542 116.998 187.522C116.998 187.502 116.988 187.452 116.988 187.422C116.988 187.392 116.968 187.352 116.958 187.322C116.948 187.288 116.934 187.255 116.918 187.222C116.908 187.212 116.908 187.192 116.898 187.182L105.682 167.757H128.104C128.226 167.754 128.346 167.723 128.454 167.667C128.484 167.647 128.504 167.627 128.534 167.607C128.615 167.557 128.683 167.488 128.734 167.407C128.744 167.387 128.764 167.377 128.784 167.357L140.14 147.692C140.15 147.682 140.15 147.662 140.16 147.652C140.179 147.622 140.193 147.588 140.2 147.553C140.21 147.523 140.22 147.483 140.23 147.453C140.238 147.42 140.242 147.386 140.24 147.353C140.24 147.333 140.25 147.323 140.25 147.303C140.25 147.283 140.24 147.273 140.24 147.253C140.24 147.233 140.23 147.183 140.23 147.153C140.23 147.123 140.21 147.083 140.2 147.053C140.189 147.018 140.176 146.985 140.16 146.953C140.15 146.943 140.15 146.923 140.14 146.913L128.784 127.248C128.767 127.222 128.747 127.199 128.724 127.178C128.693 127.133 128.656 127.093 128.614 127.058C128.572 127.025 128.529 126.995 128.484 126.968C128.444 126.942 128.4 126.922 128.354 126.908C128.303 126.888 128.249 126.878 128.194 126.878C128.164 126.878 128.134 126.858 128.104 126.858H105.682L116.898 107.433C116.908 107.423 116.908 107.403 116.918 107.393C116.938 107.362 116.951 107.328 116.958 107.293C116.968 107.263 116.978 107.223 116.988 107.193C116.997 107.16 117 107.127 116.998 107.093C116.998 107.073 117.008 107.063 117.008 107.043C117.008 107.023 116.998 107.013 116.998 106.993C116.998 106.973 116.988 106.923 116.988 106.893C116.988 106.863 116.968 106.823 116.958 106.793C116.948 106.759 116.934 106.725 116.918 106.693C116.908 106.683 116.908 106.663 116.898 106.653L105.552 86.988C105.535 86.9627 105.515 86.9392 105.492 86.9181C105.462 86.8757 105.429 86.8356 105.392 86.7981C105.351 86.7658 105.307 86.7357 105.262 86.7081C105.222 86.6822 105.178 86.662 105.132 86.6481C105.081 86.6286 105.027 86.6184 104.972 86.6181C104.942 86.6181 104.913 86.5981 104.883 86.5981H82.1806C82.1606 86.5981 82.1506 86.6081 82.1306 86.6081C82.1106 86.6081 82.0606 86.6181 82.0306 86.6181L81.9207 86.6481C81.889 86.6572 81.8586 86.6707 81.8306 86.6881C81.8189 86.6961 81.8048 86.6996 81.7907 86.6981L81.7607 86.7281C81.7323 86.7456 81.7055 86.7657 81.6808 86.7881C81.6516 86.8122 81.6248 86.839 81.6007 86.8681C81.5807 86.8981 81.5608 86.9181 81.5408 86.9481C81.5285 86.9594 81.5183 86.973 81.5108 86.988L70.2948 106.413L59.0788 86.988C59.0613 86.9627 59.0411 86.9392 59.0187 86.9181C58.9848 86.8756 58.9481 86.8355 58.9088 86.7981C58.8712 86.768 58.831 86.7413 58.7888 86.7181C58.7485 86.6922 58.7048 86.672 58.6589 86.6581C58.6081 86.6377 58.5537 86.6275 58.4989 86.6281C58.4689 86.6281 58.4389 86.6081 58.409 86.6081H35.707C35.687 86.6081 35.677 86.6181 35.657 86.6181C35.637 86.6181 35.587 86.6281 35.557 86.6281L35.4471 86.6581C35.4154 86.6672 35.385 86.6807 35.357 86.6981C35.3453 86.7061 35.3312 86.7096 35.3171 86.7081C35.3057 86.7205 35.2921 86.7306 35.2771 86.7381C35.2487 86.7556 35.2219 86.7757 35.1972 86.7981C35.1681 86.8222 35.1412 86.849 35.1171 86.8781C35.0971 86.9081 35.0772 86.9281 35.0572 86.9581C35.0449 86.9694 35.0347 86.983 35.0272 86.998L23.6812 106.663C23.6668 106.691 23.6566 106.722 23.6512 106.753C23.6301 106.801 23.6133 106.852 23.6012 106.903C23.5878 107.002 23.5878 107.103 23.6012 107.203C23.6133 107.254 23.6301 107.304 23.6512 107.353C23.6566 107.384 23.6668 107.414 23.6812 107.443L34.8972 126.868H12.4752C12.4552 126.868 12.4452 126.878 12.4252 126.878C12.4052 126.878 12.3552 126.888 12.3252 126.888L12.2153 126.918C12.1836 126.927 12.1532 126.94 12.1252 126.958C12.1152 126.968 12.0953 126.968 12.0853 126.978L12.0553 127.008C12.0269 127.025 12.0002 127.045 11.9754 127.068C11.9463 127.092 11.9194 127.119 11.8953 127.148C11.8753 127.178 11.8554 127.198 11.8354 127.228C11.8231 127.239 11.8129 127.253 11.8054 127.268L0.44943 146.933C0.434992 146.961 0.424853 146.991 0.419412 147.023C0.39828 147.071 0.381503 147.121 0.36938 147.173C0.35604 147.272 0.35604 147.373 0.36938 147.473C0.381503 147.524 0.39828 147.574 0.419412 147.623C0.424853 147.654 0.434992 147.684 0.44943 147.712L11.8054 167.377L11.8354 167.407C11.8556 167.44 11.879 167.47 11.9053 167.497C11.9453 167.537 11.9853 167.567 12.0253 167.607C12.0553 167.627 12.0654 167.657 12.0953 167.667C12.1071 167.675 12.1212 167.679 12.1352 167.677C12.2438 167.733 12.3633 167.764 12.4851 167.767H34.9072L23.7012 187.192C23.6868 187.221 23.6767 187.251 23.6712 187.282C23.6501 187.331 23.6333 187.381 23.6212 187.432C23.6078 187.532 23.6078 187.633 23.6212 187.732C23.6333 187.784 23.6501 187.834 23.6712 187.882C23.6767 187.913 23.6868 187.944 23.7012 187.972L35.0472 207.637L35.0772 207.667C35.0974 207.699 35.1208 207.73 35.1471 207.757C35.1871 207.797 35.2271 207.827 35.2671 207.867C35.2971 207.887 35.3072 207.917 35.3371 207.927C35.3489 207.935 35.363 207.939 35.377 207.937C35.4856 207.993 35.6051 208.023 35.7269 208.027H58.429C58.5508 208.023 58.6703 207.993 58.7788 207.937C58.8088 207.917 58.8288 207.897 58.8587 207.877C58.9395 207.826 59.008 207.758 59.0587 207.677C59.0687 207.657 59.0887 207.647 59.1087 207.627L70.3248 188.202L81.5408 207.627L81.5708 207.657C81.591 207.689 81.6144 207.72 81.6407 207.747C81.6807 207.787 81.7207 207.817 81.7607 207.857C81.7907 207.877 81.8006 207.907 81.8306 207.917C81.8423 207.925 81.8566 207.929 81.8706 207.927C81.9792 207.983 82.0987 208.013 82.2205 208.017H104.923C105.044 208.013 105.164 207.983 105.272 207.927C105.302 207.907 105.322 207.887 105.352 207.867C105.433 207.816 105.502 207.748 105.552 207.667C105.562 207.647 105.582 207.637 105.602 207.617L116.898 187.962ZM104.413 206.447H83.5201L93.9663 188.352H114.859L104.413 206.447ZM57.9291 206.447H37.0365L59.3786 167.757H80.2712L57.9291 206.447ZM13.7947 166.178L24.241 148.082H68.9153L58.4689 166.178H13.7947ZM12.4352 129.207L22.8815 147.303L12.4352 165.398L1.9888 147.303L12.4352 129.207ZM25.2306 107.033L35.677 88.9375L58.0191 127.628L47.5728 145.723L25.2306 107.033ZM82.1706 88.9475L92.6169 107.043L70.2848 145.733L59.8384 127.638L82.1706 88.9475ZM104.413 88.1577L114.859 106.253H93.9663L83.5201 88.1577H104.413ZM127.665 128.427L138.111 146.523H93.4366L82.9902 128.427H127.665ZM81.6207 129.207L91.6072 146.513H71.6243L81.6207 129.207ZM68.9153 146.513H48.9323L58.9188 129.207L68.9153 146.513ZM70.2748 148.872L80.2612 166.178H60.2783L70.2748 148.872ZM71.6343 148.092H92.5169L114.849 186.782H93.9563L71.6343 148.092ZM94.3362 148.092H138.101L127.655 166.188H104.773L94.3362 148.092ZM82.9902 126.848L93.9764 107.823H114.869L103.883 126.848H82.9902ZM58.9188 126.068L37.0365 88.1577H57.9291L69.3751 107.973L58.9188 126.068ZM46.2033 146.513H24.231L13.7847 128.417H35.7569L46.2033 146.513ZM57.5593 167.757L35.677 205.668L25.2306 187.572L36.6666 167.757H57.5593ZM81.6207 168.537L92.6068 187.562L82.1606 205.658L71.1745 186.623L81.6207 168.537Z" fill="white"/>
</g>
<g clip-path="url(#clip1_5_111)">
<path d="M201.138 81.8121L217.589 65.3608H165.838L217.742 13.4569L206.105 1.82007L154.21 53.7239V1.97305L137.75 18.4324V81.8121H201.138Z" stroke="#707070" stroke-width="0.999901"/>
</g>
<defs>
<clipPath id="clip0_5_111">
<rect width="139.891" height="121.438" fill="white" transform="translate(0.359375 86.5938)"/>
</clipPath>
<clipPath id="clip1_5_111">
<rect width="81.5469" height="81.5469" fill="white" transform="translate(137.25 0.765625)"/>
</clipPath>
</defs>
</svg>
