<svg width="220" height="279" viewBox="0 0 220 279" fill="none" xmlns="http://www.w3.org/2000/svg">
<path d="M29.6844 269.312H27.0672L31.2938 257.938H32.95L32.7156 260.094L29.6844 269.312ZM32.1609 260.094L31.9031 257.938H33.5672L37.8172 269.312H35.2L32.1609 260.094ZM35.1219 267.047H29.0906V265.062H35.1219V267.047ZM43.9219 257.938C44.8021 257.938 45.5573 258.07 46.1875 258.336C46.8229 258.596 47.3099 258.982 47.6484 259.492C47.987 259.997 48.1563 260.625 48.1563 261.375C48.1563 262 48.0521 262.531 47.8438 262.969C47.6406 263.406 47.3542 263.768 46.9844 264.055C46.6146 264.341 46.1797 264.573 45.6797 264.75L44.8984 265.195H41.25L41.2344 263.211H43.9141C44.3099 263.211 44.6406 263.146 44.9063 263.016C45.1719 262.88 45.3698 262.69 45.5 262.445C45.6302 262.201 45.6953 261.911 45.6953 261.578C45.6953 261.068 45.5495 260.664 45.2578 260.367C44.9714 260.07 44.526 259.922 43.9219 259.922H42.0938V269.312H39.6406V257.938H43.9219ZM43.375 264.258L45.9688 264.242L48.5703 269.195V269.312H45.9375L43.375 264.258ZM60.1047 263.859C60.1047 265.026 59.899 266.029 59.4875 266.867C59.076 267.701 58.5057 268.344 57.7766 268.797C57.0474 269.245 56.2036 269.469 55.2453 269.469C54.287 269.469 53.438 269.245 52.6984 268.797C51.9641 268.344 51.3885 267.701 50.9719 266.867C50.5552 266.029 50.3469 265.026 50.3469 263.859V263.398C50.3469 262.232 50.5526 261.232 50.9641 260.398C51.3807 259.56 51.9563 258.914 52.6906 258.461C53.425 258.008 54.2714 257.781 55.2297 257.781C56.188 257.781 57.0318 258.008 57.7609 258.461C58.4953 258.914 59.0682 259.56 59.4797 260.398C59.8964 261.232 60.1047 262.232 60.1047 263.398V263.859ZM57.6281 263.383C57.6281 262.602 57.5344 261.945 57.3469 261.414C57.1594 260.883 56.8859 260.482 56.5266 260.211C56.1672 259.94 55.7349 259.805 55.2297 259.805C54.7141 259.805 54.2792 259.94 53.925 260.211C53.5708 260.482 53.3 260.883 53.1125 261.414C52.9302 261.945 52.8391 262.602 52.8391 263.383V263.859C52.8391 264.635 52.9328 265.292 53.1203 265.828C53.3078 266.359 53.5786 266.763 53.9328 267.039C54.2922 267.315 54.7297 267.453 55.2453 267.453C55.7505 267.453 56.1802 267.315 56.5344 267.039C56.8938 266.763 57.1646 266.359 57.3469 265.828C57.5344 265.292 57.6281 264.635 57.6281 263.859V263.383ZM71.8656 269.312H69.4125L64.9984 261.992V269.312H62.5453V257.938H64.9984L69.4203 265.266V257.938H71.8656V269.312ZM88.5281 267.875C88.3458 268.089 88.0672 268.32 87.6922 268.57C87.3224 268.815 86.8432 269.026 86.2547 269.203C85.6714 269.38 84.963 269.469 84.1297 269.469C83.1453 269.469 82.2807 269.255 81.5359 268.828C80.7911 268.396 80.2104 267.768 79.7938 266.945C79.3823 266.122 79.1766 265.125 79.1766 263.953V263.305C79.1766 262.128 79.3745 261.128 79.7703 260.305C80.1714 259.482 80.7313 258.854 81.45 258.422C82.1688 257.99 83.0073 257.773 83.9656 257.773C84.9708 257.773 85.7938 257.938 86.4344 258.266C87.075 258.589 87.562 259.036 87.8953 259.609C88.2339 260.182 88.4422 260.841 88.5203 261.586H86.1375C86.0854 261.206 85.9786 260.88 85.8172 260.609C85.6609 260.333 85.4396 260.122 85.1531 259.977C84.8667 259.826 84.4943 259.75 84.0359 259.75C83.5307 259.75 83.101 259.883 82.7469 260.148C82.3927 260.414 82.1219 260.81 81.9344 261.336C81.7521 261.857 81.6609 262.508 81.6609 263.289V263.953C81.6609 264.729 81.7599 265.38 81.9578 265.906C82.1557 266.432 82.4474 266.828 82.8328 267.094C83.2234 267.359 83.7052 267.492 84.2781 267.492C84.6323 267.492 84.9266 267.464 85.1609 267.406C85.3953 267.349 85.5854 267.281 85.7313 267.203C85.8771 267.12 85.9891 267.042 86.0672 266.969V265.078H84.0047V263.289H88.5281V267.875ZM95.1328 262.984L97.4219 257.938H100.094L96.3828 265.195V269.312H93.8906V265.195L90.1719 257.938H92.8516L95.1328 262.984ZM105.097 257.938L107.917 266.055L110.73 257.938H112.8L108.745 269.312H107.073L103.027 257.938H105.097ZM103.964 257.938L104.347 266.367V269.312H101.886V257.938H103.964ZM113.941 257.938V269.312H111.48V266.367L111.855 257.938H113.941Z" fill="white"/>
<g clip-path="url(#clip0_5_74)">
<path d="M1.02006 194.783C1.0322 194.834 1.04891 194.885 1.07003 194.933C1.07547 194.964 1.08558 194.995 1.10002 195.023L8.37788 207.64L8.40787 207.67C8.42801 207.703 8.45147 207.733 8.47785 207.76C8.51784 207.8 8.55782 207.83 8.59781 207.87C8.6278 207.89 8.63781 207.92 8.6678 207.93C8.67953 207.938 8.69367 207.942 8.70777 207.94C8.81632 207.996 8.93582 208.027 9.05767 208.03H132.891C133.013 208.027 133.133 207.996 133.241 207.94C133.271 207.92 133.291 207.9 133.321 207.88C133.402 207.83 133.47 207.761 133.521 207.68C133.531 207.66 133.551 207.65 133.571 207.63L140.859 195.013C140.869 195.003 140.869 194.983 140.879 194.973C140.898 194.942 140.912 194.908 140.919 194.873C140.929 194.843 140.939 194.803 140.949 194.773C140.957 194.74 140.96 194.707 140.959 194.673C140.959 194.653 140.969 194.643 140.969 194.623C140.969 194.603 140.959 194.593 140.959 194.573C140.959 194.553 140.949 194.503 140.949 194.473C140.949 194.443 140.929 194.403 140.919 194.373C140.908 194.339 140.895 194.305 140.879 194.273C140.869 194.263 140.869 194.243 140.859 194.233L78.9471 86.9844C78.9296 86.959 78.9095 86.9356 78.8871 86.9144C78.8558 86.8698 78.8189 86.8295 78.7771 86.7944C78.6987 86.7367 78.6151 86.6865 78.5272 86.6445C78.4751 86.6288 78.4215 86.6187 78.3673 86.6145C78.3373 86.6145 78.3073 86.5945 78.2673 86.5945H63.7016C63.6816 86.5945 63.6716 86.6045 63.6516 86.6045C63.6316 86.6045 63.5816 86.6145 63.5516 86.6145L63.4416 86.6445C63.4073 86.6552 63.3739 86.6685 63.3417 86.6845C63.33 86.6924 63.3158 86.696 63.3017 86.6945C63.2903 86.7068 63.2767 86.717 63.2617 86.7245C63.2333 86.742 63.2065 86.7621 63.1817 86.7844C63.1526 86.8085 63.1258 86.8353 63.1017 86.8644C63.0817 86.8944 63.0618 86.9144 63.0418 86.9444C63.0294 86.9558 63.0193 86.9694 63.0118 86.9844L1.09001 194.243C1.07558 194.271 1.06547 194.302 1.06003 194.333C1.03889 194.381 1.02218 194.432 1.01005 194.483C1.00175 194.533 0.998387 194.583 1.00005 194.633C1.01004 194.683 1.01006 194.733 1.02006 194.783ZM77.8174 88.1642L138.829 193.843H32.2808L38.659 182.805H118.345C118.469 182.804 118.59 182.77 118.695 182.705C118.705 182.695 118.725 182.705 118.735 182.695C118.761 182.678 118.784 182.658 118.805 182.635C118.848 182.601 118.888 182.565 118.925 182.525C118.955 182.488 118.982 182.448 119.005 182.405C119.035 182.367 119.056 182.323 119.065 182.275C119.086 182.225 119.096 182.17 119.095 182.115C119.095 182.085 119.115 182.055 119.115 182.015C119.115 181.995 119.105 181.985 119.105 181.965C119.1 181.915 119.09 181.864 119.075 181.816C119.063 181.764 119.046 181.714 119.025 181.666C119.015 181.656 119.015 181.636 119.005 181.626L65.0512 88.1642H77.8174ZM132.451 206.461H10.4273L63.7016 114.179L70.0797 125.217L30.2314 194.233C30.2235 194.245 30.2199 194.259 30.2214 194.273C30.2003 194.321 30.1836 194.372 30.1714 194.423C30.1567 194.472 30.1466 194.522 30.1415 194.573C30.1415 194.593 30.1315 194.603 30.1315 194.623C30.1315 194.643 30.1515 194.683 30.1515 194.723C30.1566 194.777 30.1666 194.831 30.1814 194.883C30.2014 194.933 30.2214 194.973 30.2414 195.013C30.2658 195.054 30.2925 195.094 30.3214 195.133C30.3614 195.173 30.4014 195.203 30.4414 195.243C30.4714 195.263 30.4814 195.293 30.5114 195.303C30.5214 195.313 30.5413 195.303 30.5513 195.313C30.6592 195.372 30.7787 195.406 30.9012 195.413H138.809L132.451 206.461ZM102.41 181.236H39.5587L70.9894 126.796L102.41 181.236ZM63.7016 88.954L116.976 181.236H104.23L64.3914 112.219C64.379 112.208 64.3689 112.194 64.3614 112.179C64.3314 112.139 64.2914 112.099 64.2614 112.059C64.2261 112.021 64.1857 111.987 64.1414 111.959C64.1301 111.947 64.1165 111.937 64.1014 111.929C64.0731 111.915 64.0428 111.905 64.0115 111.899C63.9631 111.878 63.9129 111.862 63.8615 111.849C63.762 111.836 63.6612 111.836 63.5616 111.849C63.5102 111.862 63.46 111.878 63.4116 111.899C63.3803 111.905 63.35 111.915 63.3217 111.929C63.3103 111.942 63.2968 111.952 63.2817 111.959C63.2417 111.989 63.2017 112.029 63.1617 112.059C63.1204 112.092 63.0864 112.133 63.0618 112.179C63.0494 112.191 63.0393 112.204 63.0318 112.219L9.07768 205.681L2.69956 194.643L63.7016 88.954Z" fill="white"/>
</g>
<g clip-path="url(#clip1_5_74)">
<path d="M201.856 81.8121L218.308 65.3608H166.557L218.461 13.4569L206.824 1.82007L154.929 53.7239V1.97305L138.469 18.4324V81.8121H201.856Z" stroke="#707070" stroke-width="0.999901"/>
</g>
<defs>
<clipPath id="clip0_5_74">
<rect width="139.969" height="121.438" fill="white" transform="translate(1 86.5938)"/>
</clipPath>
<clipPath id="clip1_5_74">
<rect width="81.5469" height="81.5469" fill="white" transform="translate(137.969 0.765625)"/>
</clipPath>
</defs>
</svg>
