<svg width="1300" height="217" viewBox="0 0 1300 217" fill="none" xmlns="http://www.w3.org/2000/svg">
<path d="M296.444 36.3438H323.954V124.674C323.954 133.229 322.05 140.611 318.241 146.822C314.491 152.975 309.364 157.721 302.86 161.061C296.356 164.4 289.003 166.07 280.8 166.07C272.421 166.07 264.95 164.664 258.388 161.852C251.884 158.98 246.757 154.615 243.007 148.756C239.315 142.838 237.47 135.338 237.47 126.256H265.243C265.243 132.936 266.62 137.535 269.374 140.055C272.186 142.574 275.995 143.834 280.8 143.834C283.964 143.834 286.718 143.102 289.061 141.637C291.405 140.113 293.221 137.945 294.511 135.133C295.8 132.262 296.444 128.775 296.444 124.674V36.3438ZM451.747 102.965C451.747 116.09 449.432 127.369 444.804 136.803C440.175 146.178 433.759 153.414 425.555 158.512C417.352 163.551 407.86 166.07 397.079 166.07C386.298 166.07 376.747 163.551 368.427 158.512C360.165 153.414 353.69 146.178 349.003 136.803C344.315 127.369 341.971 116.09 341.971 102.965V97.7793C341.971 84.6543 344.286 73.4043 348.915 64.0293C353.602 54.5957 360.077 47.3301 368.339 42.2324C376.6 37.1348 386.122 34.5859 396.903 34.5859C407.684 34.5859 417.177 37.1348 425.38 42.2324C433.641 47.3301 440.087 54.5957 444.716 64.0293C449.403 73.4043 451.747 84.6543 451.747 97.7793V102.965ZM423.886 97.6035C423.886 88.8145 422.831 81.4316 420.721 75.4551C418.612 69.4785 415.536 64.9668 411.493 61.9199C407.45 58.873 402.587 57.3496 396.903 57.3496C391.102 57.3496 386.21 58.873 382.225 61.9199C378.241 64.9668 375.194 69.4785 373.085 75.4551C371.034 81.4316 370.009 88.8145 370.009 97.6035V102.965C370.009 111.695 371.063 119.078 373.173 125.113C375.282 131.09 378.329 135.631 382.313 138.736C386.356 141.842 391.278 143.395 397.079 143.395C402.763 143.395 407.596 141.842 411.581 138.736C415.624 135.631 418.671 131.09 420.721 125.113C422.831 119.078 423.886 111.695 423.886 102.965V97.6035ZM499.559 164.312H471.962V36.3438H499.559V164.312ZM628.143 164.312H600.546L550.888 81.959V164.312H523.29V36.3438H550.888L600.634 118.785V36.3438H628.143V164.312ZM793.114 36.3438V120.455C793.114 130.357 791.005 138.707 786.786 145.504C782.567 152.301 776.737 157.428 769.296 160.885C761.913 164.342 753.417 166.07 743.807 166.07C734.139 166.07 725.555 164.342 718.055 160.885C710.614 157.428 704.784 152.301 700.565 145.504C696.405 138.707 694.325 130.357 694.325 120.455V36.3438H722.011V120.455C722.011 125.963 722.86 130.445 724.559 133.902C726.259 137.301 728.749 139.82 732.03 141.461C735.311 143.043 739.237 143.834 743.807 143.834C748.436 143.834 752.362 143.043 755.585 141.461C758.807 139.82 761.239 137.301 762.88 133.902C764.579 130.445 765.429 125.963 765.429 120.455V36.3438H793.114ZM880.214 130.562C880.214 127.691 879.598 125.201 878.368 123.092C877.138 120.982 874.764 118.99 871.249 117.115C867.792 115.182 862.665 113.131 855.868 110.963C850.126 109.088 844.647 106.979 839.432 104.635C834.276 102.232 829.706 99.4492 825.721 96.2852C821.737 93.1211 818.602 89.4297 816.317 85.2109C814.032 80.9922 812.889 76.0703 812.889 70.4453C812.889 63.2383 814.94 56.9688 819.042 51.6367C823.143 46.2461 828.768 42.0566 835.917 39.0684C843.124 36.0801 851.356 34.5859 860.614 34.5859C870.106 34.5859 878.397 36.2559 885.487 39.5957C892.577 42.9355 898.055 47.5938 901.923 53.5703C905.848 59.4883 907.811 66.3438 907.811 74.1367H880.302C880.302 70.6797 879.569 67.6328 878.104 64.9961C876.639 62.3008 874.413 60.2207 871.425 58.7559C868.495 57.2324 864.745 56.4707 860.175 56.4707C855.78 56.4707 852.118 57.1152 849.188 58.4043C846.259 59.6934 844.061 61.3926 842.596 63.502C841.19 65.6113 840.487 67.9844 840.487 70.6211C840.487 73.375 841.454 75.7773 843.388 77.8281C845.321 79.8789 848.134 81.7832 851.825 83.541C855.516 85.2402 859.999 86.9102 865.272 88.5508C874.589 91.3633 882.411 94.6738 888.739 98.4824C895.067 102.291 899.813 106.803 902.977 112.018C906.2 117.174 907.811 123.297 907.811 130.387C907.811 137.887 905.878 144.303 902.011 149.635C898.202 154.967 892.811 159.039 885.839 161.852C878.866 164.664 870.663 166.07 861.229 166.07C854.784 166.07 848.456 165.25 842.245 163.609C836.093 161.91 830.497 159.332 825.458 155.875C820.477 152.359 816.493 147.936 813.505 142.604C810.516 137.271 809.022 130.943 809.022 123.619H836.708C836.708 127.428 837.264 130.65 838.378 133.287C839.55 135.865 841.19 137.975 843.3 139.615C845.468 141.256 848.046 142.457 851.034 143.219C854.081 143.922 857.479 144.273 861.229 144.273C865.624 144.273 869.198 143.688 871.952 142.516C874.764 141.285 876.845 139.645 878.192 137.594C879.54 135.484 880.214 133.141 880.214 130.562Z" fill="white"/>
<g clip-path="url(#clip0_5_135)">
<path d="M965.269 37.2344L939.133 63.3704H1021.35L938.891 145.826L957.377 164.312L1039.82 81.8568V164.07L1065.97 137.922V37.2344H965.269Z" fill="white"/>
</g>
<defs>
<clipPath id="clip0_5_135">
<rect width="127.078" height="127.078" fill="white" transform="translate(938.891 37.2344)"/>
</clipPath>
</defs>
</svg>
