<svg width="31" height="25" viewBox="0 0 31 25" fill="none" xmlns="http://www.w3.org/2000/svg">
<g filter="url(#filter0_d_5_418)">
<path d="M26.2051 3.04883C25.959 2.06445 25.1797 1.28516 24.2363 1.03906C22.4727 0.546875 15.5 0.546875 15.5 0.546875C15.5 0.546875 8.48633 0.546875 6.72266 1.03906C5.7793 1.28516 5 2.06445 4.75391 3.04883C4.26172 4.77148 4.26172 8.46289 4.26172 8.46289C4.26172 8.46289 4.26172 12.1133 4.75391 13.877C5 14.8613 5.7793 15.5996 6.72266 15.8457C8.48633 16.2969 15.5 16.2969 15.5 16.2969C15.5 16.2969 22.4727 16.2969 24.2363 15.8457C25.1797 15.5996 25.959 14.8613 26.2051 13.877C26.6973 12.1133 26.6973 8.46289 26.6973 8.46289C26.6973 8.46289 26.6973 4.77148 26.2051 3.04883ZM13.2031 11.7852V5.14062L19.0273 8.46289L13.2031 11.7852Z" fill="white"/>
</g>
<defs>
<filter id="filter0_d_5_418" x="0.261719" y="0.546875" width="30.4355" height="23.75" filterUnits="userSpaceOnUse" color-interpolation-filters="sRGB">
<feFlood flood-opacity="0" result="BackgroundImageFix"/>
<feColorMatrix in="SourceAlpha" type="matrix" values="0 0 0 0 0 0 0 0 0 0 0 0 0 0 0 0 0 0 127 0" result="hardAlpha"/>
<feOffset dy="4"/>
<feGaussianBlur stdDeviation="2"/>
<feComposite in2="hardAlpha" operator="out"/>
<feColorMatrix type="matrix" values="0 0 0 0 0 0 0 0 0 0 0 0 0 0 0 0 0 0 0.25 0"/>
<feBlend mode="normal" in2="BackgroundImageFix" result="effect1_dropShadow_5_418"/>
<feBlend mode="normal" in="SourceGraphic" in2="effect1_dropShadow_5_418" result="shape"/>
</filter>
</defs>
</svg>
