<svg width="69" height="113" viewBox="0 0 69 113" fill="none" xmlns="http://www.w3.org/2000/svg">
<g clip-path="url(#clip0_5_14)">
<mask id="path-1-outside-1_5_14" maskUnits="userSpaceOnUse" x="3.14062" y="14.1094" width="63" height="77" fill="black">
<rect fill="white" x="3.14062" y="14.1094" width="63" height="77"/>
<path d="M50.125 58.8516V45.8359C50.125 40.1484 48.7214 35.5547 45.9141 32.0547C43.1068 28.5182 39.2786 26.75 34.4297 26.75C29.5807 26.75 25.7891 28.5 23.0547 32C20.3568 35.4635 19.0078 40.0755 19.0078 45.8359V58.8516C19.0078 64.6484 20.375 69.3151 23.1094 72.8516C25.8802 76.3516 29.6719 78.1016 34.4844 78.1016C39.3333 78.1016 43.1432 76.3516 45.9141 72.8516C48.7214 69.3151 50.125 64.6484 50.125 58.8516ZM64.4531 45.9453V58.8516C64.4531 67.7474 61.6641 75.0391 56.0859 80.7266C50.5443 86.4141 43.3255 89.2578 34.4297 89.2578C28.5964 89.2578 23.4193 87.9635 18.8984 85.375C14.3776 82.75 10.8776 79.1406 8.39844 74.5469C5.91927 69.9167 4.67969 64.6849 4.67969 58.8516V45.9453C4.67969 37.0859 7.43229 29.8125 12.9375 24.125C18.4427 18.401 25.6068 15.5391 34.4297 15.5391C43.2891 15.5391 50.5078 18.401 56.0859 24.125C61.6641 29.8125 64.4531 37.0859 64.4531 45.9453Z"/>
</mask>
<path d="M45.9141 32.0547L45.1308 32.6764L45.134 32.6804L45.9141 32.0547ZM23.0547 32L22.2667 31.3844L22.2658 31.3855L23.0547 32ZM23.1094 72.8516L22.3182 73.4633L22.3253 73.4723L23.1094 72.8516ZM45.9141 72.8516L45.1308 72.2298L45.13 72.2309L45.9141 72.8516ZM56.0859 80.7266L55.372 80.0264L55.3697 80.0287L56.0859 80.7266ZM18.8984 85.375L18.3963 86.2398L18.4015 86.2428L18.8984 85.375ZM8.39844 74.5469L7.51685 75.0189L7.51842 75.0218L8.39844 74.5469ZM12.9375 24.125L13.656 24.8205L13.6582 24.8182L12.9375 24.125ZM56.0859 24.125L55.3698 24.8229L55.372 24.8252L56.0859 24.125ZM51.125 58.8516V45.8359H49.125V58.8516H51.125ZM51.125 45.8359C51.125 39.983 49.6783 35.1495 46.6941 31.429L45.134 32.6804C47.7644 35.9599 49.125 40.3139 49.125 45.8359H51.125ZM46.6973 31.433C43.6847 27.6379 39.5578 25.75 34.4297 25.75V27.75C38.9995 27.75 42.5288 29.3985 45.1308 32.6764L46.6973 31.433ZM34.4297 25.75C29.3053 25.75 25.2097 27.6173 22.2667 31.3844L23.8427 32.6156C26.3685 29.3827 29.8561 27.75 34.4297 27.75V25.75ZM22.2658 31.3855C19.3936 35.0727 18.0078 39.9226 18.0078 45.8359H20.0078C20.0078 40.2284 21.3199 35.8544 23.8436 32.6145L22.2658 31.3855ZM18.0078 45.8359V58.8516H20.0078V45.8359H18.0078ZM18.0078 58.8516C18.0078 64.8037 19.4129 69.7057 22.3183 73.4632L23.9005 72.2399C21.3371 68.9245 20.0078 64.4932 20.0078 58.8516H18.0078ZM22.3253 73.4723C25.3022 77.2326 29.3937 79.1016 34.4844 79.1016V77.1016C29.95 77.1016 26.4582 75.4706 23.8934 72.2309L22.3253 73.4723ZM34.4844 79.1016C39.6087 79.1016 43.7196 77.2346 46.6981 73.4723L45.13 72.2309C42.5669 75.4685 39.058 77.1016 34.4844 77.1016V79.1016ZM46.6973 73.4733C49.6806 69.7151 51.125 64.8093 51.125 58.8516H49.125C49.125 64.4876 47.7621 68.9151 45.1308 72.2298L46.6973 73.4733ZM63.4531 45.9453V58.8516H65.4531V45.9453H63.4531ZM63.4531 58.8516C63.4531 67.5189 60.7447 74.5483 55.372 80.0264L56.7999 81.4268C62.5834 75.5298 65.4531 67.9759 65.4531 58.8516H63.4531ZM55.3697 80.0287C50.0397 85.4989 43.0914 88.2578 34.4297 88.2578V90.2578C43.5596 90.2578 51.0488 87.3292 56.8022 81.4244L55.3697 80.0287ZM34.4297 88.2578C28.7494 88.2578 23.7474 86.9991 19.3953 84.5072L18.4015 86.2428C23.0911 88.928 28.4434 90.2578 34.4297 90.2578V88.2578ZM19.4006 84.5102C15.039 81.9777 11.6699 78.5031 9.27846 74.0719L7.51842 75.0218C10.0853 79.7781 13.7162 83.5223 18.3963 86.2398L19.4006 84.5102ZM9.28002 74.0748C6.8869 69.6053 5.67969 64.5388 5.67969 58.8516H3.67969C3.67969 64.831 4.95164 70.228 7.51685 75.0189L9.28002 74.0748ZM5.67969 58.8516V45.9453H3.67969V58.8516H5.67969ZM5.67969 45.9453C5.67969 37.3118 8.35349 30.2986 13.656 24.8205L12.219 23.4295C6.51109 29.3264 3.67969 36.86 3.67969 45.9453H5.67969ZM13.6582 24.8182C18.953 19.313 25.8455 16.5391 34.4297 16.5391V14.5391C25.3681 14.5391 17.9324 17.4891 12.2168 23.4318L13.6582 24.8182ZM34.4297 16.5391C43.0516 16.5391 50.0012 19.314 55.3698 24.8229L56.8021 23.4271C51.0144 17.4881 43.5266 14.5391 34.4297 14.5391V16.5391ZM55.372 24.8252C60.7455 30.3041 63.4531 37.3157 63.4531 45.9453H65.4531C65.4531 36.8561 62.5826 29.3209 56.7999 23.4248L55.372 24.8252Z" fill="#404040" mask="url(#path-1-outside-1_5_14)"/>
</g>
<defs>
<clipPath id="clip0_5_14">
<rect width="68.8594" height="112" fill="white" transform="translate(0.140625 0.109375)"/>
</clipPath>
</defs>
</svg>
