<svg width="68" height="113" viewBox="0 0 68 113" fill="none" xmlns="http://www.w3.org/2000/svg">
<g clip-path="url(#clip0_5_12)">
<mask id="path-1-outside-1_5_12" maskUnits="userSpaceOnUse" x="5.46875" y="15.1094" width="60" height="75" fill="black">
<rect fill="white" x="5.46875" y="15.1094" width="60" height="75"/>
<path d="M21.5234 88.1641H7.14062V16.5234H34.2109C42.4141 16.5234 48.8125 18.3828 53.4062 22.1016C58 25.8203 60.2969 31.0156 60.2969 37.6875C60.2969 44.9427 56.487 50.2474 48.8672 53.6016C56.8151 55.9714 60.7891 61.6589 60.7891 70.6641V75.9688C60.7891 78.2656 61.0807 80.4531 61.6641 82.5312C62.2474 84.5729 63.1406 86.0859 64.3438 87.0703V88.1094H49.5234C47.4453 86.4323 46.4062 82.349 46.4062 75.8594V70.7734C46.4062 67.2005 45.4219 64.4297 43.4531 62.4609C41.5208 60.4557 38.7682 59.4531 35.1953 59.4531L21.5234 59.5078V88.1641ZM21.5234 27.5156V48.4062H33.9375C41.9583 48.4062 45.9688 45.0156 45.9688 38.2344C45.9688 34.8802 44.9661 32.2552 42.9609 30.3594C40.9557 28.4635 38.0391 27.5156 34.2109 27.5156H21.5234Z"/>
</mask>
<path d="M21.5234 88.1641V89.1641H22.5234V88.1641H21.5234ZM7.14062 88.1641H6.14062V89.1641H7.14062V88.1641ZM7.14062 16.5234V15.5234H6.14062V16.5234H7.14062ZM48.8672 53.6016L48.4643 52.6863L45.9741 53.7825L48.5815 54.5599L48.8672 53.6016ZM61.6641 82.5312L60.7013 82.8015L60.7025 82.806L61.6641 82.5312ZM64.3438 87.0703H65.3438V86.5964L64.977 86.2964L64.3438 87.0703ZM64.3438 88.1094V89.1094H65.3438V88.1094H64.3438ZM49.5234 88.1094L48.8954 88.8876L49.1703 89.1094H49.5234V88.1094ZM43.4531 62.4609L42.733 63.1548L42.7395 63.1615L42.746 63.168L43.4531 62.4609ZM35.1953 59.4531V58.4531L35.1913 58.4531L35.1953 59.4531ZM21.5234 59.5078L21.5194 58.5078L20.5234 58.5118V59.5078H21.5234ZM21.5234 27.5156V26.5156H20.5234V27.5156H21.5234ZM21.5234 48.4062H20.5234V49.4062H21.5234V48.4062ZM42.9609 30.3594L42.2739 31.086L42.9609 30.3594ZM21.5234 87.1641H7.14062V89.1641H21.5234V87.1641ZM8.14062 88.1641V16.5234H6.14062V88.1641H8.14062ZM7.14062 17.5234H34.2109V15.5234H7.14062V17.5234ZM34.2109 17.5234C42.2728 17.5234 48.4193 19.3511 52.7771 22.8788L54.0354 21.3243C49.2057 17.4145 42.5553 15.5234 34.2109 15.5234V17.5234ZM52.7771 22.8788C57.1041 26.3817 59.2969 31.2735 59.2969 37.6875H61.2969C61.2969 30.7578 58.8959 25.2589 54.0354 21.3243L52.7771 22.8788ZM59.2969 37.6875C59.2969 41.1301 58.3966 44.0605 56.6272 46.5241C54.8516 48.9964 52.1548 51.0618 48.4643 52.6863L49.2701 54.5168C53.1994 52.7872 56.2174 50.5231 58.2517 47.6908C60.2922 44.8497 61.2969 41.5001 61.2969 37.6875H59.2969ZM48.5815 54.5599C52.3828 55.6933 55.1552 57.593 56.9889 60.2173C58.828 62.8494 59.7891 66.3057 59.7891 70.6641H61.7891C61.7891 66.0173 60.7632 62.1272 58.6283 59.0718C56.488 56.0086 53.2995 53.8796 49.1529 52.6433L48.5815 54.5599ZM59.7891 70.6641V75.9688H61.7891V70.6641H59.7891ZM59.7891 75.9688C59.7891 78.3511 60.0917 80.63 60.7013 82.8015L62.6269 82.261C62.0697 80.2763 61.7891 78.1801 61.7891 75.9688H59.7891ZM60.7025 82.806C61.3219 84.9736 62.3014 86.6913 63.7105 87.8443L64.977 86.2964C63.9799 85.4805 63.1729 84.1722 62.6256 82.2565L60.7025 82.806ZM63.3438 87.0703V88.1094H65.3438V87.0703H63.3438ZM64.3438 87.1094H49.5234V89.1094H64.3438V87.1094ZM50.1515 87.3312C49.3528 86.6866 48.6496 85.4874 48.1547 83.5425C47.6635 81.6124 47.4062 79.0606 47.4062 75.8594H45.4062C45.4062 79.1478 45.6685 81.8824 46.2164 84.0357C46.7606 86.1741 47.616 87.855 48.8954 88.8876L50.1515 87.3312ZM47.4062 75.8594V70.7734H45.4062V75.8594H47.4062ZM47.4062 70.7734C47.4062 67.014 46.3656 63.9592 44.1602 61.7538L42.746 63.168C44.4781 64.9001 45.4062 67.3871 45.4062 70.7734H47.4062ZM44.1732 61.767C42.0028 59.5147 38.9589 58.4531 35.1953 58.4531V60.4531C38.5776 60.4531 41.0389 61.3967 42.733 63.1548L44.1732 61.767ZM35.1913 58.4531L21.5194 58.5078L21.5274 60.5078L35.1993 60.4531L35.1913 58.4531ZM20.5234 59.5078V88.1641H22.5234V59.5078H20.5234ZM20.5234 27.5156V48.4062H22.5234V27.5156H20.5234ZM21.5234 49.4062H33.9375V47.4062H21.5234V49.4062ZM33.9375 49.4062C38.0649 49.4062 41.3469 48.5374 43.6066 46.6269C45.8984 44.6893 46.9688 41.8272 46.9688 38.2344H44.9688C44.9688 41.4228 44.0339 43.6467 42.3153 45.0996C40.5646 46.5798 37.8309 47.4062 33.9375 47.4062V49.4062ZM46.9688 38.2344C46.9688 34.669 45.895 31.7572 43.6479 29.6327L42.2739 31.086C44.0373 32.7532 44.9688 35.0914 44.9688 38.2344H46.9688ZM43.6479 29.6327C41.3954 27.503 38.1947 26.5156 34.2109 26.5156V28.5156C37.8835 28.5156 40.5161 29.4241 42.2739 31.086L43.6479 29.6327ZM34.2109 26.5156H21.5234V28.5156H34.2109V26.5156Z" fill="#404040" mask="url(#path-1-outside-1_5_12)"/>
</g>
<defs>
<clipPath id="clip0_5_12">
<rect width="66.6719" height="112" fill="white" transform="translate(0.46875 0.109375)"/>
</clipPath>
</defs>
</svg>
