<svg width="59" height="113" viewBox="0 0 59 113" fill="none" xmlns="http://www.w3.org/2000/svg">
<g clip-path="url(#clip0_5_10)">
<mask id="path-1-outside-1_5_10" maskUnits="userSpaceOnUse" x="0.9375" y="15.1094" width="58" height="74" fill="black">
<rect fill="white" x="0.9375" y="15.1094" width="58" height="74"/>
<path d="M57.1562 16.4688V27.5156H36.8672V88.1094H22.4844V27.5156H2.30469V16.4688H57.1562Z"/>
</mask>
<path d="M57.1562 16.4688H58.1562V15.4688H57.1562V16.4688ZM57.1562 27.5156V28.5156H58.1562V27.5156H57.1562ZM36.8672 27.5156V26.5156H35.8672V27.5156H36.8672ZM36.8672 88.1094V89.1094H37.8672V88.1094H36.8672ZM22.4844 88.1094H21.4844V89.1094H22.4844V88.1094ZM22.4844 27.5156H23.4844V26.5156H22.4844V27.5156ZM2.30469 27.5156H1.30469V28.5156H2.30469V27.5156ZM2.30469 16.4688V15.4688H1.30469V16.4688H2.30469ZM56.1562 16.4688V27.5156H58.1562V16.4688H56.1562ZM57.1562 26.5156H36.8672V28.5156H57.1562V26.5156ZM35.8672 27.5156V88.1094H37.8672V27.5156H35.8672ZM36.8672 87.1094H22.4844V89.1094H36.8672V87.1094ZM23.4844 88.1094V27.5156H21.4844V88.1094H23.4844ZM22.4844 26.5156H2.30469V28.5156H22.4844V26.5156ZM3.30469 27.5156V16.4688H1.30469V27.5156H3.30469ZM2.30469 17.4688H57.1562V15.4688H2.30469V17.4688Z" fill="#404040" mask="url(#path-1-outside-1_5_10)"/>
</g>
<defs>
<clipPath id="clip0_5_10">
<rect width="57.5312" height="112" fill="white" transform="translate(0.9375 0.109375)"/>
</clipPath>
</defs>
</svg>
