<svg width="405" height="112" viewBox="0 0 405 112" fill="none" xmlns="http://www.w3.org/2000/svg">
<g clip-path="url(#clip0_5_8)">
<mask id="path-1-outside-1_5_8" maskUnits="userSpaceOnUse" x="3" y="14" width="58" height="77" fill="black">
<rect fill="white" x="3" y="14" width="58" height="77"/>
<path d="M33.3047 78.2656H33.4141C37.2786 78.2656 40.25 77.4818 42.3281 75.9141C44.4427 74.3099 45.5 72.1406 45.5 69.4062C45.5 66.6354 44.5339 64.4297 42.6016 62.7891C40.7057 61.112 37.2786 59.526 32.3203 58.0312C23.3151 55.4427 16.7344 52.4531 12.5781 49.0625C8.45833 45.6354 6.39844 41.0417 6.39844 35.2812C6.39844 29.4844 8.89583 24.7266 13.8906 21.0078C18.8854 17.2891 25.2839 15.4297 33.0859 15.4297C40.9245 15.4297 47.3229 17.5078 52.2812 21.6641C57.2396 25.7839 59.6276 30.9609 59.4453 37.1953L59.3906 37.4688H45.4453C45.4453 34.0781 44.3151 31.3802 42.0547 29.375C39.8307 27.3698 36.7865 26.3672 32.9219 26.3672C29.0573 26.3672 26.0495 27.2057 23.8984 28.8828C21.7839 30.5234 20.7266 32.638 20.7266 35.2266C20.7266 37.7786 21.8021 39.8385 23.9531 41.4062C26.1406 42.9375 30.0781 44.5964 35.7656 46.3828C43.8958 48.6432 49.9297 51.5964 53.8672 55.2422C57.8411 58.8516 59.8281 63.6276 59.8281 69.5703C59.8281 75.513 57.4219 80.2708 52.6094 83.8438C47.8333 87.3802 41.4167 89.1484 33.3594 89.1484C28.0729 89.1484 23.2422 88.2734 18.8672 86.5234C14.4922 84.737 10.974 82.0755 8.3125 78.5391C5.65104 75.0026 4.35677 70.901 4.42969 66.2344L4.53906 65.9062H18.4844C18.4844 74.1458 23.4245 78.2656 33.3047 78.2656Z"/>
</mask>
<path d="M42.3281 75.9141L42.9304 76.7124L42.9325 76.7108L42.3281 75.9141ZM42.6016 62.7891L41.939 63.5381L41.9466 63.5448L41.9543 63.5514L42.6016 62.7891ZM32.3203 58.0312L32.609 57.0737L32.5966 57.0702L32.3203 58.0312ZM12.5781 49.0625L11.9386 49.8313L11.946 49.8374L12.5781 49.0625ZM52.2812 21.6641L51.6388 22.4304L51.6422 22.4332L52.2812 21.6641ZM59.4453 37.1953L60.4259 37.3914L60.4424 37.3088L60.4449 37.2245L59.4453 37.1953ZM59.3906 37.4688V38.4688H60.2104L60.3712 37.6649L59.3906 37.4688ZM45.4453 37.4688H44.4453V38.4688H45.4453V37.4688ZM42.0547 29.375L41.385 30.1177L41.3911 30.1231L42.0547 29.375ZM23.8984 28.8828L24.5114 29.6729L24.5133 29.6714L23.8984 28.8828ZM23.9531 41.4062L23.3641 42.2144L23.3718 42.22L23.3797 42.2255L23.9531 41.4062ZM35.7656 46.3828L35.466 47.3369L35.4818 47.3418L35.4978 47.3463L35.7656 46.3828ZM53.8672 55.2422L53.1877 55.976L53.1949 55.9824L53.8672 55.2422ZM52.6094 83.8438L53.2045 84.6474L53.2055 84.6467L52.6094 83.8438ZM18.8672 86.5234L18.4891 87.4493L18.4958 87.4519L18.8672 86.5234ZM4.42969 66.2344L3.481 65.9181L3.43222 66.0645L3.42981 66.2188L4.42969 66.2344ZM4.53906 65.9062V64.9062H3.8183L3.59038 65.59L4.53906 65.9062ZM18.4844 65.9062H19.4844V64.9062H18.4844V65.9062ZM33.3047 79.2656H33.4141V77.2656H33.3047V79.2656ZM33.4141 79.2656C37.3954 79.2656 40.6127 78.4608 42.9304 76.7124L41.7259 75.1157C39.8873 76.5028 37.1619 77.2656 33.4141 77.2656V79.2656ZM42.9325 76.7108C45.305 74.9109 46.5 72.4424 46.5 69.4062H44.5C44.5 71.8389 43.5804 73.7089 41.7237 75.1174L42.9325 76.7108ZM46.5 69.4062C46.5 66.3728 45.4274 63.8765 43.2488 62.0268L41.9543 63.5514C43.6403 64.9828 44.5 66.8981 44.5 69.4062H46.5ZM43.2641 62.0401C41.1966 60.2111 37.5906 58.5756 32.609 57.0738L32.0317 58.9887C36.9667 60.4764 40.2149 62.0129 41.939 63.5381L43.2641 62.0401ZM32.5966 57.0702C23.6387 54.4952 17.211 51.5514 13.2103 48.2876L11.946 49.8374C16.2578 53.3549 22.9915 56.3902 32.044 58.9923L32.5966 57.0702ZM13.2176 48.2937C9.34506 45.0723 7.39844 40.77 7.39844 35.2812H5.39844C5.39844 41.3134 7.5716 46.1985 11.9386 49.8313L13.2176 48.2937ZM7.39844 35.2812C7.39844 29.8267 9.72459 25.3563 14.4878 21.8099L13.2934 20.2057C8.06707 24.0969 5.39844 29.1421 5.39844 35.2812H7.39844ZM14.4878 21.8099C19.2705 18.2491 25.4439 16.4297 33.0859 16.4297V14.4297C25.1238 14.4297 18.5004 16.329 13.2934 20.2057L14.4878 21.8099ZM33.0859 16.4297C40.7412 16.4297 46.8966 18.4553 51.6389 22.4304L52.9236 20.8977C47.7493 16.5604 41.1077 14.4297 33.0859 14.4297V16.4297ZM51.6422 22.4332C56.3732 26.3642 58.6187 31.2509 58.4457 37.1661L60.4449 37.2245C60.6365 30.6709 58.1059 25.2036 52.9203 20.8949L51.6422 22.4332ZM58.4647 36.9992L58.41 37.2726L60.3712 37.6649L60.4259 37.3914L58.4647 36.9992ZM59.3906 36.4688H45.4453V38.4688H59.3906V36.4688ZM46.4453 37.4688C46.4453 33.831 45.2201 30.8463 42.7183 28.6269L41.3911 30.1231C43.4101 31.9141 44.4453 34.3252 44.4453 37.4688H46.4453ZM42.7243 28.6323C40.2683 26.4179 36.9599 25.3672 32.9219 25.3672V27.3672C36.6131 27.3672 39.3932 28.3217 41.3851 30.1177L42.7243 28.6323ZM32.9219 25.3672C28.9252 25.3672 25.6704 26.2332 23.2836 28.0942L24.5133 29.6714C26.4285 28.1782 29.1894 27.3672 32.9219 27.3672V25.3672ZM23.2854 28.0927C20.9364 29.9153 19.7266 32.317 19.7266 35.2266H21.7266C21.7266 32.9591 22.6313 31.1316 24.5114 29.6729L23.2854 28.0927ZM19.7266 35.2266C19.7266 38.1141 20.9679 40.468 23.3641 42.2144L24.5421 40.5981C22.6363 39.2091 21.7266 37.4432 21.7266 35.2266H19.7266ZM23.3797 42.2255C25.7036 43.8522 29.7709 45.548 35.466 47.3369L36.0653 45.4288C30.3854 43.6447 26.5777 42.0228 24.5266 40.587L23.3797 42.2255ZM35.4978 47.3463C43.5536 49.586 49.4154 52.483 53.1878 55.9759L54.5466 54.5084C50.444 50.7097 44.2381 47.7004 36.0335 45.4194L35.4978 47.3463ZM53.1949 55.9824C56.9365 59.3808 58.8281 63.8759 58.8281 69.5703H60.8281C60.8281 63.3793 58.7458 58.3223 54.5395 54.5019L53.1949 55.9824ZM58.8281 69.5703C58.8281 75.1933 56.5743 79.6546 52.0133 83.0408L53.2055 84.6467C58.2695 80.887 60.8281 75.8327 60.8281 69.5703H58.8281ZM52.0143 83.0401C47.4624 86.4106 41.2775 88.1484 33.3594 88.1484V90.1484C41.5558 90.1484 48.2043 88.3498 53.2045 84.6474L52.0143 83.0401ZM33.3594 88.1484C28.1847 88.1484 23.4819 87.2923 19.2386 85.595L18.4958 87.4519C23.0025 89.2546 27.9612 90.1484 33.3594 90.1484V88.1484ZM19.2452 85.5976C15.0255 83.8746 11.6571 81.3202 9.11151 77.9377L7.51349 79.1404C10.2908 82.8308 13.9589 85.5994 18.4892 87.4492L19.2452 85.5976ZM9.11151 77.9377C6.59132 74.589 5.35992 70.7074 5.42957 66.25L3.42981 66.2188C3.35362 71.0947 4.71076 75.4162 7.51349 79.1404L9.11151 77.9377ZM5.37837 66.5506L5.48775 66.2225L3.59038 65.59L3.481 65.9181L5.37837 66.5506ZM4.53906 66.9062H18.4844V64.9062H4.53906V66.9062ZM17.4844 65.9062C17.4844 70.2327 18.79 73.6429 21.549 75.9438C24.2732 78.2156 28.2502 79.2656 33.3047 79.2656V77.2656C28.479 77.2656 25.0458 76.2558 22.8299 74.4078C20.6488 72.5888 19.4844 69.8194 19.4844 65.9062H17.4844Z" fill="#404040" mask="url(#path-1-outside-1_5_8)"/>
</g>
<defs>
<clipPath id="clip0_5_8">
<rect width="405" height="112" fill="white"/>
</clipPath>
</defs>
</svg>
