<svg width="72" height="113" viewBox="0 0 72 113" fill="none" xmlns="http://www.w3.org/2000/svg">
<g clip-path="url(#clip0_5_16)">
<mask id="path-1-outside-1_5_16" maskUnits="userSpaceOnUse" x="5" y="15.1094" width="61" height="74" fill="black">
<rect fill="white" x="5" y="15.1094" width="61" height="74"/>
<path d="M64.6406 16.4688V88.1094H50.3125L21.3828 39.1094L21.0547 39.1641V88.1094H6.67188V16.4688H21.0547L49.9844 65.3594L50.3125 65.3047V16.4688H64.6406Z"/>
</mask>
<path d="M64.6406 16.4688H65.6406V15.4688H64.6406V16.4688ZM64.6406 88.1094V89.1094H65.6406V88.1094H64.6406ZM50.3125 88.1094L49.4514 88.6178L49.7416 89.1094H50.3125V88.1094ZM21.3828 39.1094L22.2439 38.601L21.8951 38.0102L21.2184 38.123L21.3828 39.1094ZM21.0547 39.1641L20.8903 38.1777L20.0547 38.3169V39.1641H21.0547ZM21.0547 88.1094V89.1094H22.0547V88.1094H21.0547ZM6.67188 88.1094H5.67188V89.1094H6.67188V88.1094ZM6.67188 16.4688V15.4688H5.67188V16.4688H6.67188ZM21.0547 16.4688L21.9153 15.9595L21.6249 15.4688H21.0547V16.4688ZM49.9844 65.3594L49.1238 65.8686L49.4728 66.4584L50.1488 66.3458L49.9844 65.3594ZM50.3125 65.3047L50.4769 66.2911L51.3125 66.1518V65.3047H50.3125ZM50.3125 16.4688V15.4688H49.3125V16.4688H50.3125ZM63.6406 16.4688V88.1094H65.6406V16.4688H63.6406ZM64.6406 87.1094H50.3125V89.1094H64.6406V87.1094ZM51.1736 87.601L22.2439 38.601L20.5217 39.6178L49.4514 88.6178L51.1736 87.601ZM21.2184 38.123L20.8903 38.1777L21.2191 40.1505L21.5472 40.0958L21.2184 38.123ZM20.0547 39.1641V88.1094H22.0547V39.1641H20.0547ZM21.0547 87.1094H6.67188V89.1094H21.0547V87.1094ZM7.67188 88.1094V16.4688H5.67188V88.1094H7.67188ZM6.67188 17.4688H21.0547V15.4688H6.67188V17.4688ZM20.1941 16.978L49.1238 65.8686L50.845 64.8501L21.9153 15.9595L20.1941 16.978ZM50.1488 66.3458L50.4769 66.2911L50.1481 64.3183L49.82 64.373L50.1488 66.3458ZM51.3125 65.3047V16.4688H49.3125V65.3047H51.3125ZM50.3125 17.4688H64.6406V15.4688H50.3125V17.4688Z" fill="#404040" mask="url(#path-1-outside-1_5_16)"/>
</g>
<defs>
<clipPath id="clip0_5_16">
<rect width="71.375" height="112" fill="white" transform="translate(0 0.109375)"/>
</clipPath>
</defs>
</svg>
