<svg width="27" height="30" viewBox="0 0 27 30" fill="none" xmlns="http://www.w3.org/2000/svg">
<g filter="url(#filter0_d_5_417)">
<path d="M22.875 9.53516V5.9668C22.834 5.9668 22.834 5.9668 22.834 5.9668C21.8496 5.9668 20.9062 5.67969 20.127 5.14648C18.9785 4.4082 18.1582 3.21875 17.9121 1.86523C17.8301 1.57812 17.8301 1.29102 17.8301 1.00391C17.8301 0.962891 17.8301 0.962891 17.8301 0.921875H14.2207V15.2773C14.2207 16.959 12.8262 18.3535 11.1445 18.3535C9.46289 18.3535 8.06836 16.959 8.06836 15.2773C8.06836 13.5957 9.46289 12.2012 11.1445 12.2012C11.4727 12.2012 11.7598 12.2422 12.0879 12.3652V8.67383C11.7598 8.63281 11.4727 8.5918 11.1445 8.5918C7.45312 8.5918 4.5 11.5859 4.5 15.2773C4.5 18.9688 7.45312 21.9219 11.1445 21.9219C14.8359 21.9219 17.8301 18.9688 17.8301 15.2773V7.93555C19.2246 8.96094 20.9473 9.53516 22.834 9.53516H22.875Z" fill="white"/>
</g>
<defs>
<filter id="filter0_d_5_417" x="0.5" y="0.921875" width="26.375" height="29" filterUnits="userSpaceOnUse" color-interpolation-filters="sRGB">
<feFlood flood-opacity="0" result="BackgroundImageFix"/>
<feColorMatrix in="SourceAlpha" type="matrix" values="0 0 0 0 0 0 0 0 0 0 0 0 0 0 0 0 0 0 127 0" result="hardAlpha"/>
<feOffset dy="4"/>
<feGaussianBlur stdDeviation="2"/>
<feComposite in2="hardAlpha" operator="out"/>
<feColorMatrix type="matrix" values="0 0 0 0 0 0 0 0 0 0 0 0 0 0 0 0 0 0 0.25 0"/>
<feBlend mode="normal" in2="BackgroundImageFix" result="effect1_dropShadow_5_417"/>
<feBlend mode="normal" in="SourceGraphic" in2="effect1_dropShadow_5_417" result="shape"/>
</filter>
</defs>
</svg>
