<svg width="27" height="27" viewBox="0 0 27 27" fill="none" xmlns="http://www.w3.org/2000/svg">
<g filter="url(#filter0_d_5_419)">
<path d="M13.3125 4.70508C10.6875 4.70508 8.5957 6.83789 8.5957 9.42188C8.5957 12.0469 10.6875 14.1387 13.3125 14.1387C15.8965 14.1387 18.0293 12.0469 18.0293 9.42188C18.0293 6.83789 15.8965 4.70508 13.3125 4.70508ZM13.3125 12.498C11.6309 12.498 10.2363 11.1445 10.2363 9.42188C10.2363 7.74023 11.5898 6.38672 13.3125 6.38672C14.9941 6.38672 16.3477 7.74023 16.3477 9.42188C16.3477 11.1445 14.9941 12.498 13.3125 12.498ZM19.3008 4.54102C19.3008 3.92578 18.8086 3.43359 18.1934 3.43359C17.5781 3.43359 17.0859 3.92578 17.0859 4.54102C17.0859 5.15625 17.5781 5.64844 18.1934 5.64844C18.8086 5.64844 19.3008 5.15625 19.3008 4.54102ZM22.418 5.64844C22.3359 4.17188 22.0078 2.85938 20.9414 1.79297C19.875 0.726562 18.5625 0.398438 17.0859 0.316406C15.5684 0.234375 11.0156 0.234375 9.49805 0.316406C8.02148 0.398438 6.75 0.726562 5.64258 1.79297C4.57617 2.85938 4.24805 4.17188 4.16602 5.64844C4.08398 7.16602 4.08398 11.7188 4.16602 13.2363C4.24805 14.7129 4.57617 15.9844 5.64258 17.0918C6.75 18.1582 8.02148 18.4863 9.49805 18.5684C11.0156 18.6504 15.5684 18.6504 17.0859 18.5684C18.5625 18.4863 19.875 18.1582 20.9414 17.0918C22.0078 15.9844 22.3359 14.7129 22.418 13.2363C22.5 11.7188 22.5 7.16602 22.418 5.64844ZM20.4492 14.8359C20.1621 15.6562 19.5059 16.2715 18.7266 16.5996C17.4961 17.0918 14.625 16.9688 13.3125 16.9688C11.959 16.9688 9.08789 17.0918 7.89844 16.5996C7.07812 16.2715 6.46289 15.6562 6.13477 14.8359C5.64258 13.6465 5.76562 10.7754 5.76562 9.42188C5.76562 8.10938 5.64258 5.23828 6.13477 4.00781C6.46289 3.22852 7.07812 2.61328 7.89844 2.28516C9.08789 1.79297 11.959 1.91602 13.3125 1.91602C14.625 1.91602 17.4961 1.79297 18.7266 2.28516C19.5059 2.57227 20.1211 3.22852 20.4492 4.00781C20.9414 5.23828 20.8184 8.10938 20.8184 9.42188C20.8184 10.7754 20.9414 13.6465 20.4492 14.8359Z" fill="white"/>
</g>
<defs>
<filter id="filter0_d_5_419" x="0.0839844" y="0.234375" width="26.416" height="26.416" filterUnits="userSpaceOnUse" color-interpolation-filters="sRGB">
<feFlood flood-opacity="0" result="BackgroundImageFix"/>
<feColorMatrix in="SourceAlpha" type="matrix" values="0 0 0 0 0 0 0 0 0 0 0 0 0 0 0 0 0 0 127 0" result="hardAlpha"/>
<feOffset dy="4"/>
<feGaussianBlur stdDeviation="2"/>
<feComposite in2="hardAlpha" operator="out"/>
<feColorMatrix type="matrix" values="0 0 0 0 0 0 0 0 0 0 0 0 0 0 0 0 0 0 0.25 0"/>
<feBlend mode="normal" in2="BackgroundImageFix" result="effect1_dropShadow_5_419"/>
<feBlend mode="normal" in="SourceGraphic" in2="effect1_dropShadow_5_419" result="shape"/>
</filter>
</defs>
</svg>
